<?xml version="1.0" standalone="no"?>
<!DOCTYPE svg PUBLIC "-//W3C//DTD SVG 1.1//EN" "http://www.w3.org/Graphics/SVG/1.1/DTD/svg11.dtd" >
<svg xmlns="http://www.w3.org/2000/svg">
<metadata></metadata>
<defs>
<font id="megalopolis_extraregular" horiz-adv-x="1331" >
<font-face units-per-em="2048" ascent="1579" descent="-469" />
<missing-glyph horiz-adv-x="512" />
<glyph unicode="&#xfb01;" horiz-adv-x="1601" d="M10 805l8 141l150 162q-8 114 -8 147q0 127 45.5 224t128 157.5t194 90.5t248.5 30q161 0 304.5 -34t224.5 -76l-95 -281q-63 26 -174.5 54t-181.5 28q-108 0 -164.5 -56.5t-56.5 -156.5q0 -59 2 -125h844q-25 -322 -25 -555q0 -213 8 -555h-489q14 319 14 565 q0 120 -6 240h-338q2 -87 6.5 -257.5t7.5 -308t5 -239.5h-490q14 542 14 745v60h-176z" />
<glyph unicode="&#xfb02;" horiz-adv-x="1601" d="M10 805l8 141l150 162q-8 114 -8 147q0 127 45.5 224t128 157.5t194 90.5t248.5 30q131 0 391.5 -18.5t311.5 -18.5q-31 -570 -31 -872q0 -506 8 -848h-489q14 449 14 856q0 222 -12 590q-20 0 -59 1t-56 1q-108 0 -164.5 -56.5t-56.5 -156.5q0 -59 2 -125h231v-305h-223 q2 -87 6.5 -257.5t7.5 -308t5 -239.5h-490q14 542 14 745v60h-176z" />
<glyph unicode="&#xfb03;" horiz-adv-x="2402" d="M10 805l8 141l150 162q-2 21 -4 42.5t-3 35.5t-1 33q0 127 45.5 224t128 157t194 90t248.5 30q209 0 395 -59q151 96 406 96q161 0 304 -34t224 -76l-94 -281q-63 26 -175 54t-181 28q-108 0 -164.5 -56.5t-56.5 -156.5q0 -59 2 -125h843q-24 -322 -24 -555 q0 -213 8 -555h-489q14 319 14 565q0 120 -6 240h-338q15 -660 18 -805h-489q14 542 14 745v60h-344q2 -87 6.5 -257.5t7.5 -308t5 -239.5h-490q14 542 14 745v60h-176zM633 1235q0 -59 2 -125h334q-8 110 -8 145q0 101 26 175q-88 18 -133 18q-108 0 -164.5 -56.5 t-56.5 -156.5z" />
<glyph unicode="&#xfb04;" horiz-adv-x="2400" d="M10 805l8 141l150 162q-2 21 -4 42.5t-3 35.5t-1 33q0 127 45.5 224t128 157t194 90t248.5 30q205 0 393 -57q158 94 406 94q132 0 390 -18.5t304 -18.5h8q-30 -570 -30 -872q0 -506 8 -848h-490q15 449 15 856q0 191 -13 590q-20 0 -58.5 1t-55.5 1q-108 0 -164.5 -56.5 t-56.5 -156.5q0 -59 2 -125h231v-305h-223q15 -660 18 -805h-489q14 542 14 745v60h-342q2 -87 6.5 -257.5t7.5 -308t5 -239.5h-490q14 542 14 745v60h-176zM633 1235q0 -59 2 -125h332q-9 124 -9 145q0 97 27 177q-78 16 -131 16q-108 0 -164.5 -56.5t-56.5 -156.5z" />
<glyph horiz-adv-x="2048" />
<glyph horiz-adv-x="2048" />
<glyph unicode="&#xd;" horiz-adv-x="2048" />
<glyph unicode=" "  horiz-adv-x="512" />
<glyph unicode="&#x09;" horiz-adv-x="512" />
<glyph unicode="&#xa0;" horiz-adv-x="512" />
<glyph unicode="!" horiz-adv-x="684" d="M82 223q0 108 76 184t184 76t184 -76t76 -184q0 -107 -76.5 -183.5t-183.5 -76.5t-183.5 76.5t-76.5 183.5zM92 1573h490q-12 -196 -46.5 -527t-39.5 -456h-308z" />
<glyph unicode="&#x22;" horiz-adv-x="948" d="M123 1425h291l-15 -610h-256zM535 1425h290l-14 -610h-256z" />
<glyph unicode="#" d="M27 328q4 63 4.5 134t-1.5 110l-1 40h211l26 201h-239v285h276l43 327h311l-41 -327h197l43 327h311l-41 -327h177q-4 -63 -4.5 -134t0.5 -111l1 -40h-210l-25 -201h238v-284h-275l-41 -328h-317l43 328h-195l-41 -328h-317l43 328h-176zM555 612h195l26 201h-196z" />
<glyph unicode="$" d="M141 88l99 285q8 -5 21.5 -12t54.5 -26.5t81.5 -34t95 -26.5t101.5 -12q141 0 141 103q0 39 -32.5 72.5t-84.5 62t-115 59t-126 72t-115 91.5t-84.5 126.5t-32.5 169.5q0 161 123 278.5t316 153.5v172h284v-172q76 -15 149 -42t107 -47l35 -20l-94 -274q-20 11 -53.5 27 t-121 42.5t-155.5 26.5q-139 0 -139 -125q0 -30 32.5 -59.5t85 -57t115.5 -59.5t126 -75t115.5 -95t85 -128.5t32.5 -166.5q0 -168 -118 -277t-310 -143v-174h-285v168q-59 8 -115 22.5t-94 30.5t-67.5 30.5t-43.5 23.5z" />
<glyph unicode="%" horiz-adv-x="1835" d="M82 1022q0 199 90 312.5t248 113.5q165 0 251.5 -112t86.5 -314q0 -198 -89.5 -312t-248.5 -114q-158 0 -248 114.5t-90 311.5zM315 0l979 1425h226l-973 -1425h-232zM338 1026q0 -254 84 -254q80 0 80 244q0 128 -20 192t-66 64q-78 0 -78 -246zM1077 406q0 199 90 312 t248 113q165 0 251.5 -111.5t86.5 -313.5q0 -198 -89.5 -312t-248.5 -114q-158 0 -248 114.5t-90 311.5zM1333 410q0 -254 84 -254q80 0 80 243q0 128 -20 192t-66 64q-78 0 -78 -245z" />
<glyph unicode="&#x26;" horiz-adv-x="1701" d="M61 354q0 77 28.5 144.5t82 121t112.5 93.5t138 80q-62 144 -62 272q0 125 67 217t171 136t227 44q169 0 267 -72.5t98 -213.5q0 -51 -17 -99t-43.5 -86.5t-68 -78t-80.5 -69t-92 -63.5q74 -78 184 -153q91 147 158 311l256 -82q-70 -184 -187 -369q75 -42 402 -208 q-88 -99 -119 -150l-113 -168q-199 78 -426 217q-243 -215 -524 -215q-228 0 -343.5 105t-115.5 286zM510 403q0 -71 38 -102t116 -31q73 0 157 62q-141 106 -241 223q-70 -73 -70 -152zM752 1104q0 -82 26 -150q87 46 133.5 91t46.5 100q0 42 -21 67t-63 25 q-57 0 -89.5 -34t-32.5 -99z" />
<glyph unicode="'" horiz-adv-x="536" d="M123 1425h291l-15 -610h-256z" />
<glyph unicode="(" horiz-adv-x="929" d="M123 561q0 151 34 293t87.5 249t119 201.5t131 158.5t119 110.5t87.5 68.5l34 21l185 -162q-7 -7 -19.5 -20.5t-48.5 -60.5t-68.5 -99.5t-72 -136.5t-68.5 -173t-48.5 -208t-19.5 -242q0 -122 19 -240t49.5 -209t67.5 -172.5t73.5 -138t67 -98.5t49.5 -62l19 -20 l-185 -162q-13 8 -35 22.5t-85.5 66.5t-121.5 112t-128.5 157t-121 202t-85.5 248t-35 294z" />
<glyph unicode=")" horiz-adv-x="929" d="M10 -379q7 7 19.5 20.5t48 60.5t68 100t72.5 137t68.5 173t48 208t19.5 241q0 123 -19 241t-49.5 209t-67 172t-73 138t-67 98.5t-49.5 61.5l-19 20l185 162q13 -8 35 -22.5t85.5 -66.5t121.5 -112t128.5 -157t121 -202t85.5 -248t35 -294t-34 -293t-87.5 -249 t-119 -201.5t-131 -158.5t-119 -110.5t-87.5 -68.5l-34 -21z" />
<glyph unicode="*" horiz-adv-x="845" d="M51 1085l51 168l242 -79l-8 251h176l-6 -249l237 77l52 -168l-238 -63l148 -213l-146 -96l-135 219l-137 -219l-146 96l150 213z" />
<glyph unicode="+" horiz-adv-x="1271" d="M82 377v358h375v375q70 -4 159.5 -4t143.5 2l55 2v-375h375q-4 -70 -4 -159.5t2 -143.5l2 -55h-375v-377h-358v377h-375z" />
<glyph unicode="," horiz-adv-x="546" d="M41 -195l88 388l-43 253h1h1h1h1h1h1h1h1h1h1h1h1h1h1h1h1h1h1h1h1h1h1h1h1h1h1h1h1h1h1h1h1h1h1h1h1h1h1h1h1h1h1h1h1h1h1h1h1h1h1h1h1h1h1h1h1h1h1h1h1h1h1h1h1h1h1h1h1h1h1h1h1h2h1h1h1h1h1h1h1h1h1h2h1h1h1h1h1h1h2h1h1h1h1h1h2h1h1h1h1h2h1h1h1h2h1h1h1h1h2h1h1h2h1 h1h1h2h1h1h2h1h1h2h1h1h2h1h1h2h1h1h2h1h1h2h1h1h2h1h2h1h1h2h1h2h1h1h2h1h2h1h2h1h1h2h1h2h1h2h1h2h1h2h1h2h1h2h1h2h1h2h1h2h1h2h1h2h1h2h2h1h2h1h2h1h2h1h2h2h1h2h1h2h2h1h2h1h2h2h1h2h2h1h2h1h2h2h1h2h2h1h2h2h1h2h2h1h2h2h1h2h2h2h1h2h2h1h2h2h2h1h2h2h2h1h2h2h2h1h2h2 h2h1h2h2h2h2h1h2h2h2h2h1h2h2h2h2h2h1h2h2h2h2h2h1h2h2h2h2h2h2h2h2h1h2h2h2h2h10l4 -8q4 -9 11 -28.5t13.5 -44.5t11.5 -64.5t5 -81.5q0 -51 -21.5 -117.5t-51.5 -125t-61 -109.5t-52.5 -81t-22.5 -30z" />
<glyph unicode="-" horiz-adv-x="786" d="M82 377l4 358h619l-3 -358h-620z" />
<glyph unicode="." horiz-adv-x="624" d="M51 223q0 107 76.5 183.5t185.5 76.5q107 0 183.5 -76.5t76.5 -183.5q0 -108 -76 -184t-184 -76q-109 0 -185.5 75.5t-76.5 184.5z" />
<glyph unicode="/" horiz-adv-x="956" d="M0 -74l627 1536h329q-507 -1263 -620 -1536h-336z" />
<glyph unicode="0" d="M70 713q0 350 159 549.5t437 199.5q290 0 443 -197t153 -552q0 -348 -158 -549t-438 -201q-277 0 -436.5 201.5t-159.5 548.5zM520 719q0 -222 38 -335.5t110 -113.5q78 0 110.5 112.5t32.5 319.5q0 222 -36.5 335.5t-117.5 113.5q-137 0 -137 -432z" />
<glyph unicode="1" d="M221 938l4 199q112 0 211.5 70.5t157.5 217.5h354q-14 -498 -14 -723q0 -91 4 -395h223v-307h-919l-19 307h248q4 258 4 404q0 31 -4 227h-250z" />
<glyph unicode="2" d="M80 1337q7 5 19.5 13.5t56 30t91 38t121.5 30t150 13.5q134 0 245.5 -28.5t195.5 -83.5t131 -142t47 -198q0 -77 -29 -145t-77 -118t-107 -93.5t-121.5 -79t-117.5 -66.5t-98.5 -64.5t-60.5 -64.5l629 14q-29 -243 -33 -393h-1005l6 176q1 73 30 146t75 134t101.5 120.5 t110.5 114t100.5 105.5t74 104t28.5 101q0 65 -50 98.5t-138 33.5q-65 0 -134.5 -25.5t-106.5 -50.5l-36 -25z" />
<glyph unicode="3" d="M119 90l98 289q5 -4 15 -11t40 -24t61 -30t75.5 -24t85.5 -11q86 0 137 40.5t51 106.5q0 37 -16 65t-46.5 45t-62 27.5t-75 15t-72 6t-66.5 1.5l-22 221q40 0 83 4.5t94 18t90.5 33.5t66 55.5t26.5 80.5q0 70 -46 107t-132 37q-63 0 -134.5 -25.5t-111.5 -50.5l-41 -25 l-98 295q8 5 22 13.5t60 30t94 38t120 30t142 13.5q162 0 295 -44t215 -132.5t82 -206.5q0 -57 -17 -106.5t-44.5 -82.5t-60.5 -60t-66.5 -42.5t-61 -26t-44.5 -14.5l-17 -4q7 -2 19 -5t47.5 -16t67 -29.5t70.5 -45.5t67.5 -63t47.5 -83.5t19 -105.5q0 -135 -82 -234 t-220.5 -148.5t-316.5 -49.5q-76 0 -149 13t-123 32t-89.5 37.5t-57.5 31.5z" />
<glyph unicode="4" d="M55 299q4 67 8 219l529 907h520q-25 -498 -25 -723v-110l187 4q-31 -147 -35 -297h-147q0 -47 1 -147t1 -152h-473q2 129 4 299h-570zM330 580l299 4v127q0 148 -4 366z" />
<glyph unicode="5" d="M137 90l99 289q6 -4 16 -11t41.5 -24t63 -30t76 -24t85.5 -11q96 0 147.5 34t51.5 99q0 50 -43.5 88t-102.5 57.5t-140 32t-135 16t-108 4.5l60 815h852l12 -424l-618 17l-11 -158q15 0 40.5 -0.5t99 -8t140.5 -21.5t149 -47t140.5 -78t99 -120t40.5 -169 q0 -147 -82 -251t-219 -153t-316 -49q-76 0 -149 13t-123 32t-89.5 37.5t-57.5 31.5z" />
<glyph unicode="6" d="M78 649q0 242 75 423.5t228.5 285.5t370.5 104q79 0 156.5 -13.5t131.5 -33t97 -38.5t65 -33l21 -13l-97 -301q-7 4 -20 11t-52 25.5t-78.5 32t-94 25t-103.5 11.5q-70 0 -122 -24t-81.5 -60.5t-47.5 -87.5t-23 -97.5t-4 -97.5q123 141 323 141q192 0 310 -110.5 t118 -323.5q0 -125 -44.5 -223t-123.5 -161t-185 -95.5t-232 -32.5t-233.5 46.5t-186.5 132.5t-123.5 216.5t-44.5 290.5zM535 461q0 -205 133 -205q51 0 81 29t40 71.5t10 104.5q0 209 -129 209q-59 0 -97 -58.5t-38 -150.5z" />
<glyph unicode="7" d="M184 1026l37 399h981v-260q-13 -18 -34 -51.5t-75.5 -138.5t-96 -211.5t-75.5 -258.5t-34 -292q0 -113 20 -213h-508q-4 29 -4 92q0 124 33 249t87 230t105 186.5t106.5 160t72.5 108.5h-615z" />
<glyph unicode="8" d="M76 381q0 61 16.5 113t42.5 87.5t57.5 64t63.5 45t58 27.5t42 15l17 4q-10 3 -25.5 10t-56 34.5t-71 61t-56 93t-25.5 127.5q0 176 144 287.5t383 111.5q235 0 379.5 -112t144.5 -287q0 -68 -25.5 -126t-61.5 -92t-72 -58.5t-61 -34.5l-26 -9q6 -1 17.5 -3.5t43.5 -14 t61 -27.5t65 -45t61.5 -65t43 -90t17.5 -117q0 -83 -42.5 -158.5t-117 -133t-186 -92t-241.5 -34.5q-129 0 -240.5 34.5t-187 92t-119 133t-43.5 158.5zM528 451q0 -89 37 -142t101 -53q71 0 104 54t33 136q0 80 -35 137.5t-98 57.5q-67 0 -104.5 -51t-37.5 -139zM528 991 q0 -77 34.5 -131.5t103.5 -54.5q67 0 102 49t35 133q0 184 -133 184q-40 0 -69 -15t-44 -41.5t-22 -57t-7 -66.5z" />
<glyph unicode="9" d="M80 952q0 165 77.5 282t208 172.5t300.5 55.5q126 0 233 -46t185.5 -132t122.5 -216.5t44 -291.5q0 -180 -43 -328.5t-125.5 -257t-211 -168t-291.5 -59.5q-79 0 -156.5 13.5t-131.5 33t-97 39.5t-65 33l-21 14l96 299q7 -4 20 -11t52 -25t78.5 -32t94 -25t103.5 -11 q70 0 122 24t81.5 60.5t47.5 87.5t23 97.5t4 98.5q-119 -141 -323 -141q-192 0 -310 110t-118 324zM532 967q0 -209 130 -209q59 0 97 58.5t38 150.5q0 204 -133 204q-74 0 -103 -54.5t-29 -149.5z" />
<glyph unicode=":" horiz-adv-x="624" d="M51 223q0 107 76.5 183.5t185.5 76.5q107 0 183.5 -76.5t76.5 -183.5q0 -108 -76 -184t-184 -76q-109 0 -185.5 75.5t-76.5 184.5zM51 887q0 107 76.5 183.5t185.5 76.5q107 0 183.5 -76.5t76.5 -183.5q0 -108 -76 -184t-184 -76q-109 0 -185.5 75.5t-76.5 184.5z" />
<glyph unicode=";" horiz-adv-x="624" d="M51 887q0 107 76.5 183.5t185.5 76.5q107 0 183.5 -76.5t76.5 -183.5q0 -108 -76 -184t-184 -76q-109 0 -185.5 75.5t-76.5 184.5zM61 -195l89 388l-44 253h1h1h1h1h1h1h1h1h1h1h1h1h1h1h1h1h1h1h1h1h1h1h1h1h1h1h1h1h1h1h1h1h1h1h1h1h1h1h1h1h1h1h1h1h1h1h1h1h1h1h1h1h1 h1h1h1h1h1h1h1h1h1h1h1h1h1h1h1h1h1h1h1h1h1h2h1h1h1h1h1h1h1h1h1h2h1h1h1h1h1h2h1h1h1h1h1h2h1h1h1h1h2h1h1h1h2h1h1h1h2h1h1h1h2h1h1h1h2h1h1h2h1h1h2h1h1h2h1h1h2h1h1h2h1h1h2h1h2h1h1h2h1h2h1h1h2h1h2h1h1h2h1h2h1h2h1h2h1h1h2h1h2h1h2h1h2h1h2h1h2h1h2h1h2h1h2h2h1h2h1 h2h1h2h1h2h2h1h2h1h2h1h2h2h1h2h1h2h2h1h2h1h2h2h1h2h2h1h2h2h1h2h2h1h2h2h1h2h2h1h2h2h1h2h2h2h1h2h2h1h2h2h2h1h2h2h2h1h2h2h2h1h2h2h2h1h2h2h2h2h1h2h2h2h2h2h1h2h2h2h2h2h1h2h2h2h2h2h2h1h2h2h2h2h2h2h2h2h1h2h10l4 -8q4 -9 11 -28.5t13.5 -44.5t11.5 -64.5t5 -81.5 q0 -51 -21.5 -117.5t-51.5 -125t-61 -109.5t-52.5 -81t-22.5 -30z" />
<glyph unicode="&#x3c;" horiz-adv-x="1155" d="M82 377l4 178l-4 180l991 412q-2 -79 -2 -175.5t1 -153.5l1 -56l-563 -207l563 -207q-4 -205 0 -383z" />
<glyph unicode="=" horiz-adv-x="1271" d="M82 84v358h1108q-4 -70 -4 -159.5t2 -144.5l2 -54h-1108zM82 668v358h1108q-4 -70 -4 -159.5t2 -144.5l2 -54h-1108z" />
<glyph unicode="&#x3e;" horiz-adv-x="1155" d="M82 -35q2 79 2 175t-1 152l-1 56l563 207l-563 207q4 207 0 385l991 -412l-4 -180l4 -178z" />
<glyph unicode="?" horiz-adv-x="1097" d="M0 1487q8 5 22.5 13.5t62 30t98 38t127.5 30t153 13.5q282 0 438 -113.5t156 -329.5q0 -61 -20.5 -117.5t-54 -101t-74 -84.5t-83 -75.5t-78.5 -67.5t-63 -66.5t-35 -66.5h-307q-7 58 12.5 116.5t53.5 108t69 99t60.5 109t25.5 118.5q0 65 -50 98t-138 33 q-41 0 -85 -10.5t-76.5 -25t-59.5 -29.5t-42 -25l-14 -11zM260 223q0 107 76.5 183.5t185.5 76.5q107 0 183.5 -76.5t76.5 -183.5q0 -108 -76 -184t-184 -76q-109 0 -185.5 75.5t-76.5 184.5z" />
<glyph unicode="@" horiz-adv-x="1832" d="M82 543q0 117 30 225.5t96.5 207t164 171t241.5 115.5t320 43q197 0 360 -46t271 -126t167.5 -188.5t59.5 -233.5q0 -212 -145 -354t-365 -142q-221 0 -248 197q-7 -19 -23.5 -46.5t-47.5 -64t-83 -61.5t-112 -25q-107 0 -174.5 76t-67.5 188q0 71 23 142.5t66 131 t111.5 97t150.5 37.5q71 0 117.5 -35.5t60.5 -93.5q4 24 10.5 51t10.5 42l5 15q144 -8 275 0q-88 -305 -88 -407q0 -42 16 -59t55 -17q93 0 168.5 86t75.5 219q0 134 -83.5 235.5t-229 154t-332.5 52.5q-188 0 -331 -68.5t-223.5 -202t-80.5 -314.5q0 -182 83 -309 t224 -187.5t328 -60.5q158 0 306.5 34.5t248.5 98.5l104 -144q-131 -89 -291 -130.5t-366 -41.5q-256 0 -448 84t-301 252t-109 402zM805 508q0 -102 86 -102q66 0 109.5 64.5t43.5 147.5q0 39 -26 69t-66 30q-65 0 -106 -65.5t-41 -143.5z" />
<glyph unicode="A" horiz-adv-x="1409" d="M41 0q11 137 54.5 334t98 380.5t107.5 347.5t89 264l36 99h518l465 -1425q-85 1 -166 1q-202 0 -373 -7l-75 295h-379q-26 -182 -33 -289h-342zM467 551h260l-129 496q-72 -223 -131 -496z" />
<glyph unicode="B" horiz-adv-x="1456" d="M123 1425h487q366 0 513 -81t147 -295q0 -131 -144 -275q127 -35 198 -113t71 -217q0 -120 -56 -207t-162.5 -138.5t-247.5 -75t-325 -23.5h-475q8 401 8 709q0 99 -3.5 278t-7.5 309zM598 571q0 -45 1 -136.5t1 -147.5q37 -7 77 -7q13 0 27 1q56 3 102.5 14t77.5 45.5 t31 89.5q0 71 -42 106q-43 36 -113 39q-21 1 -44 1q-54 0 -118 -5zM598 797q113 12 207 12q55 98 55 192q0 36 -13.5 60.5t-33 37.5t-57.5 19.5t-68.5 8t-85.5 1.5z" />
<glyph unicode="C" horiz-adv-x="1245" d="M82 713q0 181 54.5 324.5t151.5 236t228.5 140.5t288.5 48q95 0 198 -24.5t159 -49.5l55 -24l-109 -348q-7 4 -19 11.5t-49 25.5t-72.5 32t-83.5 25.5t-89 11.5q-114 0 -179 -90t-65 -307q0 -223 64 -321.5t192 -98.5q72 0 152.5 26.5t125.5 52.5l45 26l101 -318 q-6 -5 -17.5 -14t-52 -31t-86 -39t-119 -31t-151.5 -14q-163 0 -295 47t-228 138.5t-148 235t-52 329.5z" />
<glyph unicode="D" horiz-adv-x="1492" d="M123 1425h498q397 0 593.5 -171.5t196.5 -542.5q0 -364 -193 -537.5t-616 -173.5h-473q8 401 8 709q0 99 -3.5 278t-7.5 309zM596 313h135q113 0 157 89t44 294q0 206 -50.5 314t-162.5 108h-121v-82v-160q-2 -152 -2 -174v-389z" />
<glyph unicode="E" horiz-adv-x="1226" d="M123 1425h989v-305h-506l-8 -332q37 40 98 69.5t138 29.5q88 0 136 -49t48 -117q0 -72 -52 -116t-137 -44q-43 0 -104.5 30t-81.5 30q-45 0 -45 -56q2 -210 2 -233l586 20q-31 -202 -33 -352h-1024q8 401 8 709q0 99 -3.5 278t-7.5 309z" />
<glyph unicode="F" horiz-adv-x="1118" d="M123 1425h932q2 -67 10 -155t15 -142l7 -55l-481 17q-8 -191 -10 -308h438l-8 -286h-430q6 -456 6 -496h-475q10 401 10 709q0 99 -3.5 278t-7.5 309z" />
<glyph unicode="G" horiz-adv-x="1458" d="M82 713q0 181 54.5 324.5t152 236t229 140.5t287.5 48q116 0 234 -24.5t179 -49.5l60 -24l-109 -348q-8 4 -22.5 11.5t-57.5 25.5t-85.5 32t-100 25.5t-106.5 11.5q-244 0 -244 -405q0 -216 59 -327t170 -111q47 0 91 12.5t65 25.5l20 13v229l-215 6v262h623v-616 q-25 0 -66.5 -25.5t-93 -62t-113 -73t-145.5 -62t-172 -25.5q-324 0 -509 190.5t-185 559.5z" />
<glyph unicode="H" horiz-adv-x="1536" d="M123 1425h498q-17 -343 -23 -589h332l-15 589h498q-24 -498 -24 -723q0 -86 3 -324t3 -378h-473q6 295 8 573h-334q6 -504 6 -573h-473q8 401 8 709q0 99 -3.5 278t-7.5 309z" />
<glyph unicode="I" horiz-adv-x="743" d="M123 1425h498q-25 -498 -25 -723q0 -86 3 -324t3 -378h-475q10 401 10 709q0 99 -3.5 278t-7.5 309z" />
<glyph unicode="J" horiz-adv-x="1032" d="M0 43l39 319q111 -53 211 -53q98 0 137 43.5t39 143.5q0 608 -6 929h489q-10 -839 -10 -950q0 -127 -40.5 -225.5t-113 -160.5t-170.5 -94t-217 -32q-71 0 -134 8t-102.5 20t-68.5 24t-41 20z" />
<glyph unicode="K" horiz-adv-x="1474" d="M123 1425h498q-19 -378 -25 -624h84q289 442 377 637l418 -29q-270 -405 -467 -670q41 -56 160 -223.5t212 -292t156 -192.5l-516 -68q-106 88 -424 633q0 -83 3 -277t3 -319h-473q8 401 8 709q0 99 -3.5 278t-7.5 309z" />
<glyph unicode="L" horiz-adv-x="1165" d="M123 0q16 494 16 715q0 138 -2.5 315.5t-4.5 285.5l-3 109h483l-4 -1089l547 16q-29 -202 -33 -352h-999z" />
<glyph unicode="M" horiz-adv-x="1765" d="M123 1425h452q30 -47 157.5 -323t170.5 -350q204 434 324 673h415q-24 -498 -24 -723q0 -86 2 -324t2 -378h-473q0 -3 1 45t2.5 127t3 172t2.5 199.5t1 189.5q-140 -259 -348 -592q-20 24 -79.5 131.5t-139 251t-131.5 226.5q0 -99 2 -349t2 -401h-336q10 401 10 709 q0 99 -4 278t-8 309z" />
<glyph unicode="N" horiz-adv-x="1472" d="M123 1425h354q513 -671 533 -696l-13 696h353q-25 -498 -27 -723q0 -86 3 -324t3 -378h-303q-26 33 -233.5 288.5t-335.5 426.5q0 -90 3 -331t3 -384h-336q8 401 8 711v54q0 89 -2 223q-3 178 -7 308z" />
<glyph unicode="O" horiz-adv-x="1527" d="M82 713q0 364 182 556.5t500 192.5q321 0 501.5 -192t180.5 -557q0 -361 -181.5 -555.5t-500.5 -194.5q-317 0 -499.5 195t-182.5 555zM551 725q0 -451 215 -451q111 0 160 107.5t49 316.5q0 208 -55 332.5t-166 124.5q-104 0 -153.5 -101t-49.5 -329z" />
<glyph unicode="P" horiz-adv-x="1386" d="M123 1425h500q89 -2 171 -13t162.5 -33t146 -59t116 -86.5t78.5 -120t28 -155.5q0 -87 -27.5 -161.5t-73.5 -127t-108 -94.5t-128 -68t-138.5 -43t-133.5 -23.5t-118 -6.5q4 -304 4 -434h-473q10 401 10 709q0 99 -4 278t-8 309zM596 989.5q0 -77.5 1 -164.5t1 -120 q40 1 81 11t84.5 33.5t71 70.5t27.5 112q0 197 -238 197q-13 0 -26 -1q-2 -61 -2 -138.5z" />
<glyph unicode="Q" horiz-adv-x="1527" d="M82 713q0 363 182.5 556t499.5 193q321 0 501.5 -192t180.5 -557q0 -272 -104 -452t-295 -251l217 -311l-422 -100q-14 21 -36 57t-73.5 133.5t-81.5 179.5q-267 33 -418 225t-151 519zM551 725q0 -226 56 -338.5t161 -112.5q111 0 160 107.5t49 316.5q0 208 -55 332.5 t-166 124.5q-105 0 -155 -101t-50 -329z" />
<glyph unicode="R" horiz-adv-x="1435" d="M123 1425h500q79 -1 147 -7t141.5 -19.5t132 -35t112.5 -56t90 -79t57.5 -107.5t21.5 -140t-22 -146t-58.5 -119.5t-78 -86t-85.5 -56.5q120 -239 273 -239q25 0 45.5 2t28.5 4l8 2l-43 -371q-52 -8 -158 -8q-83 0 -157.5 28.5t-130.5 75t-104 111.5t-80.5 132.5 t-57.5 142.5l-107 -13q4 -304 4 -440h-473q10 401 10 709q0 99 -4 278t-8 309zM596 992q0 -75 1 -159.5t1 -117.5q264 6 264 239q0 54 -18.5 91.5t-47.5 52.5q-28 16 -64 25q-28 7 -55 7h-15q-34 -2 -64 -2q-2 -61 -2 -136z" />
<glyph unicode="S" horiz-adv-x="1148" d="M51 88l99 285q8 -5 21.5 -12t54.5 -26.5t81.5 -34t95 -26.5t101.5 -12q141 0 141 103q0 39 -32.5 72.5t-84.5 62t-115 59t-126 72t-115 91.5t-84.5 126.5t-32.5 169.5q0 126 78.5 228.5t211 159t290.5 56.5q69 0 139.5 -12.5t121 -30t91.5 -35.5t61 -30l21 -13l-94 -274 q-20 11 -53.5 27t-121 42.5t-155.5 26.5q-139 0 -139 -125q0 -30 32.5 -59.5t85 -57t115.5 -59.5t126 -75t115.5 -95t85 -128.5t32.5 -166.5q0 -137 -81.5 -237t-212.5 -148.5t-294 -48.5q-80 0 -157 13t-129.5 31.5t-93 36.5t-60.5 31z" />
<glyph unicode="T" horiz-adv-x="1120" d="M0 1073q29 202 33 352h1087l-49 -350h-276q-11 -244 -11 -373q0 -86 3.5 -324t3.5 -378h-474q9 401 9 709q0 135 -7 364h-319z" />
<glyph unicode="U" horiz-adv-x="1419" d="M102 565v860h494q-14 -590 -14 -872q0 -150 44.5 -214.5t151.5 -64.5q191 0 191 277v874h348v-860q0 -602 -586 -602q-295 0 -462 159t-167 443z" />
<glyph unicode="V" horiz-adv-x="1406" d="M0 1425q69 -1 135 -1q220 0 404 8l272 -1049q8 24 21 66.5t47 169t61 247t52.5 277t31.5 282.5h342q-10 -137 -53.5 -334t-98 -380.5t-107 -347.5t-88.5 -263l-36 -100h-518z" />
<glyph unicode="W" horiz-adv-x="2324" d="M0 1425q69 -1 135 -1q220 0 404 8l272 -1049q14 46 37 124t73.5 289t75.5 386l-79 243q487 0 538 7l273 -1049q8 24 21 66.5t47 169t61 247t52.5 277t31.5 282.5h342q-10 -137 -53.5 -334t-98 -380.5t-107 -347.5t-88.5 -263l-36 -100h-519l-229 707 q-47 -166 -104.5 -342.5t-90.5 -270.5l-34 -94h-459z" />
<glyph unicode="X" horiz-adv-x="1417" d="M-20 1425h550l263 -467q34 72 107 245t97 222h400q-226 -406 -408 -720l449 -705h-557l-258 467q-36 -74 -109 -247t-96 -220h-398q224 405 408 717z" />
<glyph unicode="Y" horiz-adv-x="1388" d="M-41 1425h553q6 -12 50 -105.5t74 -155t73 -144t73 -129.5q44 80 135.5 284.5t114.5 249.5h398q-304 -550 -494 -864q0 -43 3 -238.5t3 -322.5h-473q6 235 8 543q-93 150 -261.5 436.5t-256.5 445.5z" />
<glyph unicode="Z" horiz-adv-x="1243" d="M51 172l520 936l-499 -4l-13 321h1133l-2 -151l-522 -948l514 4v-330h-1123z" />
<glyph unicode="[" horiz-adv-x="847" d="M123 -440q10 796 14 1032l-14 1032h682v-270l-256 -11l4 -751l-4 -752l256 -10q2 -178 0 -270h-682z" />
<glyph unicode="\" horiz-adv-x="956" d="M0 1462h330l626 -1536h-335z" />
<glyph unicode="]" horiz-adv-x="847" d="M43 -170l256 10l-4 752l4 751l-256 11q-2 178 0 270h682q-10 -796 -14 -1032l14 -1032h-682v270z" />
<glyph unicode="^" horiz-adv-x="1265" d="M51 791l406 634l176 -2l176 2l405 -634h-399l-182 339l-184 -339q-222 2 -398 0z" />
<glyph unicode="_" horiz-adv-x="1511" d="M0 -88h1511q-2 -37 -2 -90t1 -87l1 -34h-1511v211z" />
<glyph unicode="`" horiz-adv-x="710" d="M0 1634q58 5 158 11.5t170 10.5l71 3l209 -418h-317z" />
<glyph unicode="a" horiz-adv-x="1345" d="M51 254q0 77 31 138t81.5 98.5t115 66t132 44t132 30.5t115 27t81.5 32t31 47q0 53 -41.5 83t-112.5 30q-55 0 -122 -18t-123.5 -43.5t-105 -51t-75.5 -43.5l-28 -18l-88 289q9 7 27 19.5t77.5 44t124.5 55.5t167 43.5t206 19.5q272 0 403 -107.5t131 -306.5 q0 -99 10 -282.5t20 -316.5l9 -134h-440l-4 221q-19 -43 -35.5 -72t-50 -67.5t-74.5 -62t-106.5 -40t-147.5 -16.5q-149 0 -244.5 76t-95.5 215zM541 317q0 -90 75 -90q49 0 87.5 48.5t60 121.5t29.5 162q-20 -15 -58 -35.5t-68.5 -38t-61 -41.5t-47.5 -56t-17 -71z" />
<glyph unicode="b" horiz-adv-x="1550" d="M123 1720q103 -5 233 -5t208 3l79 2q-23 -492 -31 -800q41 102 134.5 164.5t218.5 62.5q228 0 365.5 -161.5t137.5 -432.5t-140 -430.5t-370 -159.5q-75 0 -138.5 23t-106 61t-70.5 80.5t-43 87.5q0 -16 9 -106t9 -109h-489q16 449 16 856q0 140 -5.5 356t-11.5 362z M582 553q0 -126 48.5 -207.5t155.5 -81.5q189 0 189 289t-189 289q-56 0 -96.5 -24t-63.5 -66t-33.5 -91.5t-10.5 -107.5z" />
<glyph unicode="c" horiz-adv-x="1148" d="M82 553q0 149 44.5 263.5t126.5 186.5t192.5 108t246.5 36q137 0 243.5 -34.5t170.5 -86.5l-94 -281q-72 43 -125 62.5t-123 19.5q-100 0 -144.5 -69.5t-44.5 -204.5q0 -136 44.5 -203t144.5 -67q54 0 105 15t81.5 31.5t89.5 53.5l99 -295q-5 -3 -40 -21.5t-49 -24.5 t-50 -22t-63 -23t-66.5 -16.5t-81.5 -13.5t-89 -4q-138 0 -248 32.5t-194.5 100.5t-130 184t-45.5 273z" />
<glyph unicode="d" horiz-adv-x="1548" d="M82 553q0 271 138 432.5t366 161.5q125 0 218 -62.5t134 -164.5q-3 137 -10.5 337t-13.5 331l-7 132q146 -6 275.5 -6t245.5 6q-20 -550 -21 -864q0 -297 2 -430q2 -107 11 -213.5t18 -159.5l8 -53h-490q0 19 -3 109t-3 106q-15 -45 -43 -87.5t-70.5 -80.5t-106 -61 t-138.5 -23q-230 0 -370 159.5t-140 430.5zM575 553q0 -289 189 -289q107 0 156 81.5t49 207.5q0 79 -18 141t-66 105t-121 43q-189 0 -189 -289z" />
<glyph unicode="e" horiz-adv-x="1263" d="M82 553q0 149 44.5 263.5t126 186t192 108t245.5 36.5q238 0 368 -99.5t130 -275.5q0 -84 -38.5 -151t-102.5 -107.5t-144 -61.5q-76 -20 -158 -20h-8q-86 1 -166 23q0 -42 8.5 -76.5t27.5 -66.5t56.5 -50t90.5 -18q176 0 379 108l90 -264q-83 -60 -220 -92.5t-305 -32.5 q-109 0 -201 20t-169.5 64.5t-131.5 112t-84 167.5t-30 226zM565 606q31 -7 63 -9h14q26 -1 56 5q38 8 68 26.5t50 57t20 94.5q0 105 -93 105q-86 0 -129.5 -79t-48.5 -200z" />
<glyph unicode="f" horiz-adv-x="970" d="M10 805l8 141l150 162q-8 114 -8 147q0 127 40 224t113 157t170.5 90.5t216.5 30.5q140 0 246.5 -30.5t167.5 -79.5l-94 -281q-120 82 -242 82q-85 0 -115 -52.5t-30 -160.5q0 -59 2 -125h364l-41 -305h-315q2 -87 6.5 -257.5t7.5 -308t5 -239.5h-490q14 542 14 745v60 h-176z" />
<glyph unicode="g" horiz-adv-x="1476" d="M51 -307q0 145 144 266q-35 56 -35 141q0 142 143 281q-101 55 -155 139.5t-54 192.5q0 194 161 314t433 120q190 0 338 -66l412 29l-13 -252h-172q27 -76 27 -145q0 -189 -158 -301.5t-434 -112.5q-97 0 -188 16q-8 -19 -8 -43q0 -34 22.5 -47.5t75.5 -13.5h465 q195 0 298 -104.5t103 -299.5q0 -135 -97.5 -238.5t-275 -159.5t-409.5 -56q-623 0 -623 340zM360 -264q0 -81 80.5 -117.5t249.5 -36.5t267 35t98 107q0 94 -107 94h-418q-72 0 -147 16q-23 -51 -23 -98zM547 694q0 -87 35.5 -136.5t109.5 -49.5t106.5 52t32.5 134 q0 185 -149 185q-73 0 -104 -47.5t-31 -137.5z" />
<glyph unicode="h" horiz-adv-x="1542" d="M123 1720q103 -5 233 -5t208 3l79 2q-23 -492 -31 -800q42 104 143 165.5t259 61.5q188 0 289.5 -106t101.5 -302q0 -433 14 -739h-495q0 59 4 259t4 294q0 142 -37 215.5t-131 73.5q-47 0 -79.5 -23.5t-48 -67t-22 -90.5t-6.5 -108q0 -215 15 -553h-494q16 449 16 856 q0 140 -5.5 356t-11.5 362z" />
<glyph unicode="i" horiz-adv-x="763" d="M123 1497q0 107 76.5 183.5t183.5 76.5t183.5 -76.5t76.5 -183.5q0 -108 -76 -184t-184 -76t-184 76t-76 184zM127 1110q102 -5 230 -5t205 3l77 2q-25 -322 -25 -555q0 -170 9 -555h-490q14 319 14 565q0 101 -5 237t-10 222z" />
<glyph unicode="j" horiz-adv-x="763" d="M121 1497q0 107 76.5 183.5t185.5 76.5q107 0 183.5 -76.5t76.5 -183.5q0 -108 -76 -184t-184 -76q-109 0 -185.5 75.5t-76.5 184.5zM123 -610q31 574 31 876q0 459 -9 844h490q-14 -445 -14 -854q0 -139 5 -355.5t10 -363.5l5 -147q-102 5 -231.5 5t-207.5 -3z" />
<glyph unicode="k" horiz-adv-x="1480" d="M123 1720q102 -5 231.5 -5t207.5 3l79 2q-31 -570 -31 -872v-182l76 -7q46 68 134 218.5t155 287.5l467 -51q-11 -11 -30 -29.5t-74.5 -75t-106.5 -111t-114.5 -127.5t-110.5 -134q157 -201 536 -627l-536 -67q-64 53 -179 227.5t-217 349.5q0 -157 8 -520h-489 q14 449 14 856q0 140 -5 356t-10 362z" />
<glyph unicode="l" horiz-adv-x="763" d="M123 1720q102 -5 231.5 -5t207.5 3l79 2q-31 -570 -31 -872q0 -506 8 -848h-489q14 449 14 856q0 140 -5 356t-10 362z" />
<glyph unicode="m" horiz-adv-x="2340" d="M123 0q14 449 14 856q0 74 -4 254h477q-4 -136 -4 -190q40 102 137 164.5t234 62.5q72 0 128 -13.5t92.5 -35.5t64.5 -56t43.5 -67.5t29.5 -77.5q134 250 475 250q191 0 292.5 -108.5t101.5 -299.5q0 -433 14 -739h-498q0 23 5.5 236t5.5 317q0 140 -39.5 214.5 t-132.5 74.5q-160 0 -160 -289q0 -247 14 -553h-498q0 23 5.5 236t5.5 317q0 141 -38 215t-132 74q-158 0 -158 -289q0 -193 16 -553h-491z" />
<glyph unicode="n" horiz-adv-x="1536" d="M123 0q14 449 14 856q0 164 -2 254h477q-3 -117 -6 -190q42 104 142.5 165.5t255.5 61.5q196 0 295.5 -109t99.5 -299q0 -281 13 -739h-497q0 23 5.5 236t5.5 317q0 141 -37.5 215t-130.5 74q-48 0 -80.5 -23.5t-48.5 -67t-22.5 -90.5t-6.5 -108q0 -238 14 -553h-491z " />
<glyph unicode="o" horiz-adv-x="1507" d="M82 559q0 274 180 431t492 157q314 0 492.5 -157t178.5 -431q0 -271 -179.5 -433.5t-491.5 -162.5q-310 0 -491 163t-181 433zM561 567q0 -137 48 -217t147 -80q56 0 94 22t58 63t28 87.5t8 106.5q0 82 -17 145.5t-64 108.5t-120 45q-99 0 -140.5 -71t-41.5 -210z" />
<glyph unicode="p" horiz-adv-x="1550" d="M123 -610q20 550 20 862q0 182 -3.5 396.5t-7.5 337.5l-3 124h489q-1 -22 -10 -112t-10 -103q15 45 43.5 87.5t71 80.5t106 61t137.5 23q230 0 371 -160t141 -430q0 -273 -137.5 -433.5t-367.5 -160.5q-125 0 -218 62.5t-133 164.5q3 -138 10 -338t13 -331l6 -131 q-145 6 -274 6t-244 -6zM580 557q0 -126 48.5 -207.5t155.5 -81.5q191 0 191 289t-191 289q-56 0 -96.5 -24t-63.5 -66t-33.5 -91.5t-10.5 -107.5z" />
<glyph unicode="q" horiz-adv-x="1548" d="M82 557q0 270 141 430t371 160q75 0 138.5 -23t106 -61t70.5 -80.5t43 -87.5q0 14 3 104.5t3 110.5h488q-31 -188 -37 -428q-2 -133 -2 -430q0 -139 5 -354.5t10 -361.5l5 -146q-102 5 -231.5 5t-207.5 -3l-79 -2q23 490 29 800q-40 -102 -132.5 -164.5t-217.5 -62.5 q-230 0 -368 160.5t-138 433.5zM575 557q0 -289 191 -289q107 0 156 81.5t49 207.5q0 79 -18 141t-66 105t-121 43q-191 0 -191 -289z" />
<glyph unicode="r" horiz-adv-x="1042" d="M123 0q16 449 16 856q0 74 -4 254h449v-55.5v-99t0.5 -97.5t-0.5 -51q12 39 26.5 74t44 87t64 88.5t88 63.5t113.5 27q72 0 163 -21l-92 -483q-118 62 -221 62h-6q-83 0 -126.5 -51t-43.5 -191q0 -231 18 -463h-489z" />
<glyph unicode="s" horiz-adv-x="1124" d="M20 156l111 247q10 -7 27 -17.5t66.5 -38.5t96 -49t106 -38.5t105.5 -17.5q33 0 50.5 16.5t17.5 42.5q0 28 -28 51t-72 41.5t-98 38.5t-108 49t-98 66.5t-72 97.5t-28 135q0 89 40 160t108.5 115.5t156.5 68t187 23.5q77 0 151 -12.5t124.5 -30.5t90.5 -36.5t59 -31.5 l19 -12l-86 -256q-24 12 -62.5 29.5t-129.5 47t-148 29.5q-35 0 -53 -19.5t-18 -47.5q0 -25 29.5 -45.5t77 -37.5t105 -36t115 -47.5t105 -66t77 -98t29.5 -136.5q0 -167 -131.5 -272t-345.5 -105q-108 0 -207 20t-163 48.5t-113 56.5t-71 48z" />
<glyph unicode="t" horiz-adv-x="1067" d="M20 797l7 149l489 516h148l2 -352h325l-22 -305q-148 0 -312 2q-6 -208 -6 -385q0 -88 20.5 -123t92.5 -35q26 0 49.5 4t46 12.5t35.5 14.5t34.5 17.5t24.5 13.5l93 -263q-145 -100 -383 -100q-104 0 -190.5 25.5t-153.5 77t-104.5 137t-37.5 198.5q0 262 4 398z" />
<glyph unicode="u" horiz-adv-x="1488" d="M123 406q0 67 2 240q3 173 3 267v27q0 82 -3 170h481q0 -10 -5 -229t-5 -324q0 -71 6 -120t21.5 -89.5t45.5 -60t76 -19.5q36 0 62 16.5t40.5 42t23.5 65.5t11.5 78t2.5 87q0 171 -17 553h496q-14 -449 -14 -856q0 -91 22 -254h-473l-18 190q-88 -227 -377 -227 q-180 0 -280.5 114t-100.5 329z" />
<glyph unicode="v" horiz-adv-x="1327" d="M0 1110h522l228 -731q14 36 36.5 101t75 257t84.5 373h340q-43 -190 -134 -467.5t-160 -460.5l-70 -182h-502z" />
<glyph unicode="w" horiz-adv-x="2033" d="M123 471q0 69 2 223q3 154 3 236v23q0 72 -3 157h481q0 -5 -5 -232.5t-5 -332.5q0 -142 32.5 -209.5t121.5 -67.5q65 0 101 66.5t36 163.5q0 70 2 216q3 146 3 222v23q0 67 -3 151h481q0 -10 -5 -229t-5 -324q0 -145 32.5 -217t120.5 -72q44 0 74.5 23.5t45 67t20.5 90.5 t6 108q0 115 -33.5 232t-66.5 177l-33 60l325 162q4 -10 11 -28.5t24.5 -80.5t30.5 -129.5t24 -171t11 -209.5q0 -101 -18 -188t-60 -165t-106 -133t-162 -87.5t-222 -32.5q-290 0 -421 221q-131 -221 -375 -221q-220 0 -342.5 134.5t-122.5 373.5z" />
<glyph unicode="x" horiz-adv-x="1345" d="M-41 1110h576q18 -30 45.5 -71t48 -70t63 -87.5t62.5 -86.5q122 200 204 368l365 -51q-209 -322 -391 -555q302 -396 454 -545l-528 -67q-22 22 -311 385q-125 -209 -185 -330h-391q212 326 396 559q-342 439 -408 551z" />
<glyph unicode="y" horiz-adv-x="1241" d="M-420 -358q190 0 340.5 31t261.5 95t170.5 168.5t59.5 243.5q0 63 -15.5 120t-41.5 99.5t-60 80t-72 63.5t-75.5 47.5t-71.5 34.5t-60 21.5t-42 11.5l-15 4l102 485q9 -2 25 -5t65 -17.5t97 -33t112.5 -53t120 -76t112.5 -103.5t97 -134t65 -169t25 -206q25 69 41.5 137 t28.5 163q11 89 11 187v17q-1 107 -11 256h350q0 -250 -53 -482t-148.5 -424.5t-233.5 -351.5t-304.5 -269t-365 -170t-410.5 -60z" />
<glyph unicode="z" horiz-adv-x="1243" d="M51 170l500 641l-479 -4l-13 303h1133l-2 -160l-500 -653q111 3 201 3q191 0 291 -13v-324q-134 25 -414 35q-213 7 -387 7q-55 0 -107 -1l-215 -4z" />
<glyph unicode="{" horiz-adv-x="817" d="M20 465v182q206 0 209 158q0 79 -45 217t-45 229q0 98 50.5 170.5t140 114.5t201 62t245.5 20l-6 -291q-110 0 -160.5 -29t-50.5 -110q0 -61 45 -188t45 -197q0 -100 -59 -160.5t-158 -87.5q99 -27 158 -87.5t59 -158.5q0 -70 -45 -197t-45 -188q0 -81 51 -111t160 -30 l6 -291q-134 0 -245.5 20t-201 62.5t-140 115.5t-50.5 171q0 90 45 228t45 216q-1 79 -55 119.5t-154 40.5z" />
<glyph unicode="|" horiz-adv-x="542" d="M123 -352v1814h291l6 -1814h-297z" />
<glyph unicode="}" horiz-adv-x="817" d="M41 -508l6 291q109 0 160 30t51 111q0 61 -45 188t-45 197q0 98 59 158.5t158 87.5q-99 27 -158 87.5t-59 160.5q0 70 45 197t45 188q0 81 -50.5 110t-160.5 29l-6 291q134 0 245.5 -20t201 -62t140 -114.5t50.5 -170.5q0 -91 -45 -229t-45 -217q3 -158 209 -158v-182 q-100 0 -154 -40.5t-55 -119.5q0 -78 45 -216t45 -228q0 -98 -50.5 -171t-140 -115.5t-201 -62.5t-245.5 -20z" />
<glyph unicode="~" horiz-adv-x="1411" d="M51 471q3 7 9 19.5t26.5 47.5t44 67t61.5 71.5t79 67.5t96.5 47.5t113.5 19.5q63 0 121 -17.5t100.5 -43t81 -51t77.5 -43t75 -17.5q48 0 95.5 43.5t70.5 87.5l24 43l234 -162q-3 -7 -9.5 -19.5t-29 -48t-47.5 -67.5t-64 -71.5t-80.5 -68t-95.5 -48t-110 -19.5 q-66 0 -136.5 27t-119.5 59t-104.5 59t-96.5 27q-45 0 -90.5 -43t-68.5 -86l-23 -43z" />
<glyph unicode="&#xa1;" horiz-adv-x="684" d="M82 887q0 107 76.5 183.5t183.5 76.5t183.5 -76.5t76.5 -183.5q0 -108 -76 -184t-184 -76t-184 76t-76 184zM102 -463q12 196 46.5 527t39.5 456h308l96 -983h-490z" />
<glyph unicode="&#xa2;" d="M143 553q0 149 45 263.5t127 186.5t192.5 108t246.5 36q65 0 112 -8l52 235l163 -35l-51 -239q75 -26 137 -74l-94 -281q-77 46 -110 58l-115 -520q47 3 93.5 18.5t76.5 32t84 49.5l98 -295q-2 -1 -39 -21t-48.5 -25t-48 -21.5t-61 -23t-63.5 -16.5t-79.5 -14t-84.5 -4 l-51 -229l-164 39l45 200q-218 34 -340.5 175t-122.5 405zM637 553q0 -151 51 -213l109 485q-85 -10 -122.5 -78.5t-37.5 -193.5z" />
<glyph unicode="&#xa3;" d="M133 0q6 156 14 334l132 2q0 131 2 199h-148v196h150q0 61 1 137t1 82q0 127 40 225.5t112.5 160.5t170.5 94t217 32q138 0 244 -34t170 -85l-94 -280q-123 80 -240 80q-85 0 -116 -52.5t-31 -160.5v-199h237q-5 -56 -7 -105t-2 -70l1 -21h-229v-193l485 8 q-33 -203 -37 -350h-1073z" />
<glyph unicode="&#xa4;" horiz-adv-x="1425" d="M0 145l287 289q-70 124 -70 279q0 160 70 278l-287 287l145 147l287 -286q121 71 285 71q156 0 276 -69l285 284l147 -147l-286 -287q67 -115 67 -278t-67 -281l286 -287l-147 -145l-285 285q-119 -72 -276 -72q-162 0 -283 74l-289 -287zM451 713q0 -137 71 -211 t191 -74q128 0 198 77t70 206q0 133 -72 209.5t-196 76.5q-115 0 -188.5 -74.5t-73.5 -209.5z" />
<glyph unicode="&#xa5;" d="M-70 1425h553q2 -5 49 -104t75.5 -157.5t72.5 -142t74 -130.5q44 80 135.5 284.5t114.5 249.5h397q-211 -384 -391 -692h227q-5 -56 -7 -105t-2 -70l1 -21h-322q0 -68 2 -99h328q-5 -56 -7 -105t-2 -70l1 -21h-318q2 -76 2 -242h-473q2 95 4 242h-350v196h352q3 46 3 99 h-355v196h238q-234 391 -402 692z" />
<glyph unicode="&#xa6;" horiz-adv-x="542" d="M123 -352v778h291l6 -778h-297zM123 684v778h291l6 -778h-297z" />
<glyph unicode="&#xa7;" horiz-adv-x="1114" d="M0 -197l119 238q7 -6 19 -16t49.5 -35t76 -44.5t92.5 -35.5t103 -16q55 0 77.5 16t22.5 53q0 32 -26.5 57.5t-69 45t-94 40t-103.5 48.5t-94.5 64t-69 92.5t-26.5 127.5q0 129 81 213.5t216 118.5q-51 22 -84 38t-77.5 46.5t-71 62.5t-45.5 81.5t-19 107.5q0 89 40 158.5 t108.5 111.5t155.5 64t187 22q77 0 151 -12.5t125 -31t90.5 -36.5t58.5 -30l20 -13l-86 -256q-18 12 -47 29t-101.5 45.5t-122.5 28.5q-64 0 -92 -19.5t-28 -62.5q0 -21 28.5 -40t74.5 -37.5t101 -39.5t110 -51.5t101 -68.5t74.5 -95.5t28.5 -126.5q0 -123 -75.5 -212 t-207.5 -128q59 -25 103.5 -51.5t88.5 -66t67.5 -93t23.5 -117.5q0 -166 -131 -266t-347 -100q-108 0 -207 20t-163 48t-112.5 56t-70.5 48zM428 541q0 -92 32.5 -145.5t98.5 -53.5q127 0 127 186q0 85 -32 143t-103 58q-66 0 -94.5 -47t-28.5 -141z" />
<glyph unicode="&#xa8;" horiz-adv-x="1040" d="M51 1458q0 89 63 152t152 63t152 -63t63 -152t-63 -153t-152 -64t-152 64t-63 153zM559 1458q0 89 63 152t152 63t152 -63t63 -152t-63 -153t-152 -64t-152 64t-63 153z" />
<glyph unicode="&#xa9;" horiz-adv-x="1628" d="M82 713q0 145 37 267t103.5 210.5t158.5 150t203.5 91.5t236.5 30q159 0 291 -48t229 -140.5t151 -236t54 -324.5q0 -179 -54 -322t-151 -236t-229.5 -142.5t-290.5 -49.5q-157 0 -291 49.5t-234 142.5t-157 236.5t-57 321.5zM295 715q0 -258 142.5 -410.5t375.5 -152.5 q256 0 394.5 148t138.5 409q0 266 -139.5 416.5t-391.5 150.5q-113 0 -205.5 -33t-164 -99t-111 -175.5t-39.5 -253.5zM469 713q0 192 107 296.5t280 104.5q51 0 106 -13t84 -27l29 -13l-57 -187q-10 6 -27 16t-61.5 26t-79.5 16q-61 0 -95 -48t-34 -163q0 -120 34 -172.5 t101 -52.5q39 0 82.5 14t67.5 28l24 13l53 -170q-3 -3 -9 -7.5t-27.5 -16.5t-46 -21.5t-63.5 -17t-81 -7.5q-178 0 -282.5 103t-104.5 299z" />
<glyph unicode="&#xaa;" horiz-adv-x="940" d="M82 424v186h776v-186h-776zM82 891q0 77 47.5 128t115 73t134.5 36t114.5 30t47.5 42q0 34 -26.5 53t-72.5 19q-56 0 -128.5 -28t-117.5 -56l-44 -27l-56 185q6 5 17.5 12.5t49.5 27.5t80 35.5t106.5 28t131.5 12.5q174 0 258 -68.5t84 -195.5q0 -64 6.5 -181t12.5 -203 l6 -85h-283l-2 141q-12 -28 -22.5 -46.5t-32 -43t-47.5 -39.5t-68 -25.5t-94 -10.5q-95 0 -156 48.5t-61 137.5zM395 932q0 -58 47 -58t76 61t37 150q-11 -8 -60.5 -34t-74.5 -52.5t-25 -66.5z" />
<glyph unicode="&#xab;" horiz-adv-x="1204" d="M51 555l240 469l354 -61l-201 -408l201 -405l-354 -62zM559 555l240 469l354 -61l-201 -408l201 -405l-354 -62z" />
<glyph unicode="&#xac;" horiz-adv-x="1198" d="M82 557v346h1014q-3 -49 -3.5 -117.5t0 -131.5t1.5 -197t2 -246h-338v346h-676z" />
<glyph unicode="&#xad;" horiz-adv-x="786" d="M82 377l4 358h619l-3 -358h-620z" />
<glyph unicode="&#xae;" horiz-adv-x="909" d="M82 1083q0 180 107.5 279.5t271.5 99.5q165 0 265.5 -98.5t100.5 -280.5q0 -180 -100.5 -278t-265.5 -98q-164 0 -271.5 99t-107.5 277zM213 1085q0 -129 66.5 -197.5t179.5 -68.5q120 0 186 69.5t66 192.5q0 127 -66.5 199t-185.5 72q-111 0 -178.5 -66t-67.5 -201z M307 907q4 102 4 180l-4 183h127q178 -4 178 -113q0 -66 -65 -104q28 -45 106 -144l-131 -16q-24 32 -80 137h-14v-123h-121zM428 1090q66 0 66 61q0 49 -66 43v-104z" />
<glyph unicode="&#xaf;" horiz-adv-x="845" d="M51 1305v245h744v-245h-744z" />
<glyph unicode="&#xb0;" horiz-adv-x="909" d="M82 1083q0 180 107.5 279.5t271.5 99.5q165 0 265.5 -98.5t100.5 -280.5q0 -180 -100.5 -278t-265.5 -98q-164 0 -271.5 99t-107.5 277zM301 1085q0 -83 43 -127.5t115 -44.5q77 0 120.5 45.5t43.5 122.5q0 82 -43 128t-121 46q-72 0 -115 -41.5t-43 -128.5z" />
<glyph unicode="&#xb1;" horiz-adv-x="978" d="M82 0v242h815q-3 -51 -3.5 -111.5t0.5 -95.5l1 -35h-813zM82 592v264h276v254q51 -3 117 -3t106 1l40 2v-254h274q-3 -52 -3 -118t2 -106l1 -40h-274v-254h-263v254h-276z" />
<glyph unicode="&#xb2;" horiz-adv-x="733" d="M61 1780q4 3 11 7.5t31.5 17t51.5 22t69 17t85 7.5q158 0 255.5 -66t97.5 -192q0 -50 -22.5 -94t-57 -74t-76.5 -58t-80 -47.5t-69 -42t-42 -42.5l357 8q-17 -139 -19 -223h-571l4 98q1 57 31.5 114t73.5 102.5t86.5 88.5t73.5 86t30 80t-29 56.5t-78 19.5 q-37 0 -76.5 -14.5t-59.5 -28.5l-21 -14z" />
<glyph unicode="&#xb3;" horiz-adv-x="722" d="M61 1073l58 164q8 -6 22 -15.5t55 -25.5t78 -16q50 0 79.5 23t29.5 61q0 90 -193 90l-12 125q29 0 60.5 5t66 16t56.5 34t22 55q0 80 -102 80q-36 0 -76.5 -13.5t-62.5 -27.5l-23 -14l-58 166q12 8 34 20t87.5 31.5t128.5 19.5q142 0 239 -59t97 -158q0 -44 -18 -80 t-44 -55.5t-52 -33t-44 -17.5l-18 -4q8 -2 21 -5.5t45.5 -19.5t58 -36.5t46 -57t20.5 -80.5q0 -115 -98 -180.5t-253 -65.5q-69 0 -131.5 18.5t-90.5 36.5z" />
<glyph unicode="&#xb4;" horiz-adv-x="710" d="M102 1241l209 418q269 -13 400 -25l-291 -393h-318z" />
<glyph unicode="&#xb5;" horiz-adv-x="1495" d="M123 1110q102 -5 231.5 -5t207.5 3l79 2q-17 -293 -25 -571q2 -135 35 -203t119 -68q44 0 74 23.5t45 67t20.5 90.5t5.5 108q0 193 -16 553h485q-14 -449 -14 -856q0 -83 23 -254h-473l-19 190q-76 -190 -291 -221q0 -272 8 -579h-489q14 449 14 856q0 140 -5 356 t-10 362z" />
<glyph unicode="&#xb6;" horiz-adv-x="1503" d="M61 936q0 114 33.5 200.5t90 140.5t140 88t174 47t201.5 13h674l6 -1777h-317v1499h-207l4 -1499h-317v850q-46 -4 -68 -4q-84 0 -157 26.5t-131 78.5t-92 139t-34 198z" />
<glyph unicode="&#xb7;" horiz-adv-x="624" d="M51 575q0 107 76.5 184t185.5 77q107 0 183.5 -77t76.5 -184q0 -108 -76 -184t-184 -76q-109 0 -185.5 75.5t-76.5 184.5z" />
<glyph unicode="&#xb8;" horiz-adv-x="692" d="M51 -508l35 139q90 -32 166 -32q117 0 117 73q0 34 -22.5 54t-59.5 20q-21 0 -42.5 -3.5t-32.5 -6.5l-11 -4l-58 28l129 336l142 -33l-35 -184q118 -6 190 -58t72 -151q0 -56 -32.5 -100.5t-85.5 -70t-114.5 -39t-125.5 -13.5q-59 0 -117 11.5t-86 22.5z" />
<glyph unicode="&#xb9;" horiz-adv-x="636" d="M61 1550l5 113q63 0 119 41t89 125h201q-8 -283 -8 -410q0 -31 1 -105t1 -120h127v-174h-522l-11 174h142q0 36 1 113t1 116q0 17 -1 57t-1 70h-144z" />
<glyph unicode="&#xba;" horiz-adv-x="1026" d="M82 424v186h862v-186h-862zM82 1085q0 175 115.5 276t314.5 101q201 0 315.5 -101t114.5 -276q0 -172 -115.5 -276t-314.5 -104q-198 0 -314 104t-116 276zM389 1092q0 -88 31 -139.5t94 -51.5q121 0 121 178q0 82 -30.5 137.5t-98.5 55.5q-63 0 -90 -45.5t-27 -134.5z " />
<glyph unicode="&#xbb;" horiz-adv-x="1204" d="M51 150l201 405l-201 408l355 61l239 -469l-239 -467zM559 150l201 405l-201 408l354 61l240 -469l-240 -467z" />
<glyph unicode="&#xbc;" horiz-adv-x="1638" d="M61 1147l5 113q63 0 119 40.5t89 124.5h201q-8 -282 -8 -409q0 -30 1 -105t1 -120h127v-175h-522l-11 175h142q0 37 1 113t1 116q0 18 -1 58t-1 69h-144zM227 0l979 1425h226l-973 -1425h-232zM864 170q2 39 4 125l301 514h295q-14 -283 -14 -410v-63l106 4 q-18 -84 -20 -170h-84q0 -27 1 -83.5t1 -86.5h-270q2 74 4 170h-324zM1020 330l170 2v71q0 19 -1 97.5t-1 111.5z" />
<glyph unicode="&#xbd;" horiz-adv-x="1755" d="M61 1147l5 113q63 0 119 40.5t89 124.5h201q-8 -282 -8 -409q0 -30 1 -105t1 -120h127v-175h-522l-11 175h142q0 37 1 113t1 116q0 18 -1 58t-1 69h-144zM227 0l979 1425h226l-973 -1425h-232zM1063 758q4 3 11 7.5t31.5 17t51.5 22t69 17t85 7.5q158 0 255 -66t97 -192 q0 -60 -31 -109.5t-78 -83t-94.5 -60.5t-89 -53.5t-53.5 -49.5l356 8q-16 -139 -18 -223h-572l4 98q1 57 31.5 113.5t73.5 102t86.5 88t73.5 85.5t30 80t-28.5 56.5t-77.5 19.5q-37 0 -76.5 -14.5t-60.5 -28.5l-21 -14z" />
<glyph unicode="&#xbe;" horiz-adv-x="1628" d="M61 670l58 164q8 -6 22 -16t55 -26t78 -16q50 0 79.5 23t29.5 61q0 90 -193 90l-12 125q29 0 60.5 5t66 16.5t56.5 34.5t22 55q0 80 -102 80q-36 0 -76.5 -14t-62.5 -28l-23 -14l-58 166q12 8 34 20t87.5 32t128.5 20q142 0 239 -59t97 -158q0 -44 -18 -80t-44 -56 t-52 -33t-44 -18l-18 -4q8 -2 21 -5.5t45.5 -19.5t58 -36t46 -56.5t20.5 -80.5q0 -116 -98 -181t-253 -65q-69 0 -131.5 18.5t-90.5 37.5zM256 0l979 1425h225l-973 -1425h-231zM895 170q2 39 4 125l301 514h295q-14 -283 -14 -410v-63l106 4q-18 -84 -20 -170h-84 q0 -27 1 -83.5t1 -86.5h-271q3 74 5 170h-324zM1051 330l170 2v71q0 19 -1 97.5t-1 111.5z" />
<glyph unicode="&#xbf;" horiz-adv-x="1097" d="M41 -59q0 61 20.5 117.5t54 101t74 84.5t83 75.5t78.5 67.5t63 66.5t35 66.5h307q7 -58 -12.5 -116.5t-53.5 -108t-69 -99t-60.5 -109t-25.5 -118.5q0 -65 50 -98t138 -33q41 0 84.5 10.5t76.5 25t60 29.5t41 25l14 11l99 -316q-8 -5 -22.5 -13.5t-62 -30t-98 -38 t-127.5 -30t-153 -13.5q-282 0 -438 113.5t-156 329.5zM315 887q0 108 76 184t184 76q109 0 186 -76t77 -184q0 -107 -77 -183.5t-186 -76.5q-107 0 -183.5 76.5t-76.5 183.5z" />
<glyph unicode="&#xc0;" horiz-adv-x="1409" d="M41 0q11 137 54.5 334t98 380.5t107.5 347.5t89 264l36 99h518l465 -1425q-299 4 -539 -6l-75 295h-379q-26 -182 -33 -289h-342zM299 1950q58 5 158 11t171 9l70 4l209 -418h-317zM467 551h260l-129 496q-72 -223 -131 -496z" />
<glyph unicode="&#xc1;" horiz-adv-x="1409" d="M41 0q11 137 54.5 334t98 380.5t107.5 347.5t89 264l36 99h518l465 -1425q-299 4 -539 -6l-75 295h-379q-26 -182 -33 -289h-342zM453 1556l209 418q268 -12 399 -24l-291 -394h-317zM467 551h260l-129 496q-72 -223 -131 -496z" />
<glyph unicode="&#xc2;" horiz-adv-x="1409" d="M41 0q11 137 54.5 334t98 380.5t107.5 347.5t89 264l36 99h518l465 -1425q-299 4 -539 -6l-75 295h-379q-26 -182 -33 -289h-342zM236 1573l290 393h318l289 -393l-322 -17l-127 203l-125 -203q-194 5 -323 17zM467 551h260l-129 496q-72 -223 -131 -496z" />
<glyph unicode="&#xc3;" horiz-adv-x="1409" d="M41 0q11 137 54.5 334t98 380.5t107.5 347.5t89 264l36 99h518l465 -1425q-299 4 -539 -6l-75 295h-379q-26 -182 -33 -289h-342zM168 1587q1 7 3.5 19t13 46.5t25.5 66t42.5 69.5t61 65.5t84.5 46.5t110 19q43 0 94.5 -16.5t90.5 -37t85 -37t80 -16.5q38 0 62 27t29 53 l5 27l250 -31q-1 -7 -3 -19t-12.5 -46.5t-24.5 -66t-41.5 -69.5t-61 -65.5t-85 -46.5t-112.5 -19q-55 0 -121 27t-126.5 53.5t-102.5 26.5q-37 0 -61 -26.5t-29 -53.5l-6 -27l-248 31h-2zM467 551h260l-129 496q-72 -223 -131 -496z" />
<glyph unicode="&#xc4;" horiz-adv-x="1409" d="M41 0q11 137 54.5 334t98 380.5t107.5 347.5t89 264l36 99h518l465 -1425q-299 4 -539 -6l-75 295h-379q-26 -182 -33 -289h-342zM221 1774q0 89 63 152t152 63t152 -63t63 -152q0 -90 -63 -154t-152 -64t-152 64t-63 154zM467 551h260l-129 496q-72 -223 -131 -496z M729 1774q0 89 63 152t152 63t152 -63t63 -152q0 -90 -63 -154t-152 -64t-152 64t-63 154z" />
<glyph unicode="&#xc5;" horiz-adv-x="1409" d="M41 0q12 153 63 375t120.5 445.5t112.5 352t79 228.5q-31 60 -31 141q0 131 83 210t216 79t216 -79t83 -210q0 -70 -31 -141l457 -1401q-299 4 -539 -6l-75 295h-379q-26 -182 -33 -289h-342zM467 551h260l-129 496q-72 -223 -131 -496zM567 1542q0 -54 32 -85.5 t85 -31.5t85 31.5t32 85.5q0 53 -32.5 86t-84.5 33t-84.5 -33t-32.5 -86z" />
<glyph unicode="&#xc6;" horiz-adv-x="1859" d="M41 0q10 137 53.5 334t98 380.5t107 347.5t88.5 264l36 99h1321v-305h-703l119 -366q47 54 72 73q77 60 190 60q88 0 136.5 -48.5t48.5 -115.5q0 -73 -51.5 -117.5t-135.5 -44.5q-44 0 -103.5 31t-78.5 31q-22 0 -22 -25q0 -5 26 -96q4 -15 9.5 -31t18 -52.5t27.5 -84.5 l521 18q-31 -202 -33 -352h-918l-75 289h-377q-28 -171 -33 -289h-342zM465 551h260l-129 496q-70 -223 -131 -496z" />
<glyph unicode="&#xc7;" horiz-adv-x="1245" d="M82 713q0 181 54.5 324.5t151.5 236t228.5 140.5t288.5 48q95 0 198 -24.5t159 -49.5l55 -24l-109 -348q-7 4 -19 11.5t-49 25.5t-72.5 32t-83.5 25.5t-89 11.5q-114 0 -179 -90t-65 -307q0 -223 64 -321.5t192 -98.5q72 0 152.5 26.5t125.5 52.5l45 26l101 -318 q-5 -4 -15 -11.5t-44.5 -27.5t-73.5 -36t-101.5 -31.5t-128.5 -20.5l-16 -86q118 -6 190 -58t72 -151q0 -56 -32.5 -100.5t-85.5 -70t-114.5 -39t-125.5 -13.5q-59 0 -117 11.5t-87 22.5l-28 11l35 139q90 -32 166 -32q117 0 117 73q0 34 -22.5 54t-59.5 20 q-21 0 -42.5 -3.5t-32.5 -6.5l-11 -4l-58 28l80 209q-288 29 -451 218t-163 526z" />
<glyph unicode="&#xc8;" horiz-adv-x="1226" d="M123 1425h989v-305h-506l-8 -332q37 40 98 69.5t138 29.5q88 0 136 -49t48 -117q0 -72 -52 -116t-137 -44q-43 0 -104.5 30t-81.5 30q-45 0 -45 -56q2 -210 2 -233l586 20q-31 -202 -33 -352h-1024q8 401 8 709q0 99 -3.5 278t-7.5 309zM211 1950q58 5 158 11t171 9l70 4 l209 -418h-317z" />
<glyph unicode="&#xc9;" horiz-adv-x="1226" d="M123 1425h989v-305h-506l-8 -332q37 40 98 69.5t138 29.5q88 0 136 -49t48 -117q0 -72 -52 -116t-137 -44q-43 0 -104.5 30t-81.5 30q-45 0 -45 -56q2 -210 2 -233l586 20q-31 -202 -33 -352h-1024q8 401 8 709q0 99 -3.5 278t-7.5 309zM453 1556l209 418 q268 -12 399 -24l-291 -394h-317z" />
<glyph unicode="&#xca;" horiz-adv-x="1226" d="M123 1425h989v-305h-506l-8 -332q37 40 98 69.5t138 29.5q88 0 136 -49t48 -117q0 -72 -52 -116t-137 -44q-43 0 -104.5 30t-81.5 30q-45 0 -45 -56q2 -210 2 -233l586 20q-31 -202 -33 -352h-1024q8 401 8 709q0 99 -3.5 278t-7.5 309zM164 1573l291 393h317l289 -393 l-322 -17l-127 203l-125 -203q-194 5 -323 17z" />
<glyph unicode="&#xcb;" horiz-adv-x="1226" d="M123 1425h989v-305h-506l-8 -332q37 40 98 69.5t138 29.5q88 0 136 -49t48 -117q0 -72 -52 -116t-137 -44q-43 0 -104.5 30t-81.5 30q-45 0 -45 -56q2 -210 2 -233l586 20q-31 -202 -33 -352h-1024q8 401 8 709q0 99 -3.5 278t-7.5 309zM143 1774q0 89 63 152t152 63 t152 -63t63 -152q0 -90 -63 -154t-152 -64t-152 64t-63 154zM651 1774q0 89 63 152t152 63t152 -63t63 -152q0 -90 -63 -154t-152 -64t-152 64t-63 154z" />
<glyph unicode="&#xcc;" horiz-adv-x="743" d="M6 1950q58 5 158 11t171 9l71 4l208 -418h-317zM123 1425h498q-25 -498 -25 -723q0 -86 3 -324t3 -378h-475q10 401 10 709q0 99 -3.5 278t-7.5 309z" />
<glyph unicode="&#xcd;" horiz-adv-x="743" d="M123 1425h498q-25 -498 -25 -723q0 -86 3 -324t3 -378h-475q10 401 10 709q0 99 -3.5 278t-7.5 309zM123 1556l209 418q268 -12 399 -24l-291 -394h-317z" />
<glyph unicode="&#xce;" horiz-adv-x="743" d="M-76 1573l291 393h317l289 -393l-321 -17l-127 203l-125 -203q-195 5 -324 17zM123 1425h498q-25 -498 -25 -723q0 -86 3 -324t3 -378h-475q10 401 10 709q0 99 -3.5 278t-7.5 309z" />
<glyph unicode="&#xcf;" horiz-adv-x="743" d="M-96 1774q0 89 63 152t152 63t152 -63t63 -152q0 -90 -63 -154t-152 -64t-152 64t-63 154zM123 1425h498q-25 -498 -25 -723q0 -86 3 -324t3 -378h-475q10 401 10 709q0 99 -3.5 278t-7.5 309zM412 1774q0 89 63 152t152 63t152 -63t63 -152q0 -90 -63 -154t-152 -64 t-152 64t-63 154z" />
<glyph unicode="&#xd0;" horiz-adv-x="1492" d="M0 588v243h135l-12 594h498q397 0 593.5 -171.5t196.5 -542.5q0 -364 -193 -537.5t-616 -173.5h-473q6 304 8 588h-137zM596 313h135q113 0 157 89t44 294q0 206 -50.5 314t-162.5 108h-121q0 -201 -2 -287h168v-243h-168v-275z" />
<glyph unicode="&#xd1;" horiz-adv-x="1464" d="M98 1425h355q512 -671 532 -696l-12 696h352q-25 -498 -27 -723q0 -86 3.5 -324t3.5 -378h-304q-26 33 -233.5 288.5t-335.5 426.5q0 -90 3 -331t3 -384h-336q9 401 9 711q1 98 -2.5 276.5t-6.5 308.5zM213 1587q1 7 3.5 19t13 46.5t25.5 66t42.5 69.5t61 65.5t84.5 46.5 t110 19q43 0 94.5 -16.5t90.5 -37t85 -37t80 -16.5q38 0 62 27t29 53l5 27l250 -31q-1 -7 -3 -19t-12.5 -46.5t-24.5 -66t-41.5 -69.5t-61 -65.5t-85 -46.5t-112.5 -19q-55 0 -121 27t-126.5 53.5t-102.5 26.5q-37 0 -61 -26.5t-30 -53.5l-5 -27l-248 31h-2z" />
<glyph unicode="&#xd2;" horiz-adv-x="1527" d="M82 713q0 364 182 556.5t500 192.5q321 0 501.5 -192t180.5 -557q0 -361 -181.5 -555.5t-500.5 -194.5q-317 0 -499.5 195t-182.5 555zM328 1950q58 5 158 11t170 9l71 4l209 -418h-318zM551 725q0 -451 215 -451q111 0 160 107.5t49 316.5q0 208 -55 332.5t-166 124.5 q-104 0 -153.5 -101t-49.5 -329z" />
<glyph unicode="&#xd3;" horiz-adv-x="1527" d="M82 713q0 364 182 556.5t500 192.5q321 0 501.5 -192t180.5 -557q0 -361 -181.5 -555.5t-500.5 -194.5q-317 0 -499.5 195t-182.5 555zM551 725q0 -451 215 -451q111 0 160 107.5t49 316.5q0 208 -55 332.5t-166 124.5q-104 0 -153.5 -101t-49.5 -329zM569 1556l209 418 q269 -12 400 -24l-291 -394h-318z" />
<glyph unicode="&#xd4;" horiz-adv-x="1527" d="M82 713q0 364 182 556.5t500 192.5q321 0 501.5 -192t180.5 -557q0 -361 -181.5 -555.5t-500.5 -194.5q-317 0 -499.5 195t-182.5 555zM315 1573l291 393h318l288 -393l-321 -17l-127 203l-125 -203q-195 5 -324 17zM551 725q0 -451 215 -451q111 0 160 107.5t49 316.5 q0 208 -55 332.5t-166 124.5q-104 0 -153.5 -101t-49.5 -329z" />
<glyph unicode="&#xd5;" horiz-adv-x="1527" d="M82 713q0 364 182 556.5t500 192.5q321 0 501.5 -192t180.5 -557q0 -361 -181.5 -555.5t-500.5 -194.5q-317 0 -499.5 195t-182.5 555zM246 1587q1 7 3.5 19t13 46.5t25.5 66t42.5 69.5t61 65.5t84.5 46.5t110 19q43 0 94.5 -16.5t90.5 -37t85 -37t80 -16.5q38 0 62 27 t29 53l5 27l250 -31q-1 -7 -3 -19t-12.5 -46.5t-24.5 -66t-41.5 -69.5t-61 -65.5t-85 -46.5t-112.5 -19q-55 0 -121 27t-126.5 53.5t-102.5 26.5q-37 0 -61 -26.5t-29 -53.5l-6 -27l-248 31h-2zM551 725q0 -451 215 -451q111 0 160 107.5t49 316.5q0 208 -55 332.5 t-166 124.5q-104 0 -153.5 -101t-49.5 -329z" />
<glyph unicode="&#xd6;" horiz-adv-x="1527" d="M82 713q0 364 182 556.5t500 192.5q321 0 501.5 -192t180.5 -557q0 -361 -181.5 -555.5t-500.5 -194.5q-317 0 -499.5 195t-182.5 555zM295 1774q0 89 63 152t152 63t152 -63t63 -152q0 -90 -63 -154t-152 -64t-152 64t-63 154zM551 725q0 -451 215 -451q111 0 160 107.5 t49 316.5q0 208 -55 332.5t-166 124.5q-104 0 -153.5 -101t-49.5 -329zM803 1774q0 89 63 152t152 63t152 -63t63 -152q0 -90 -63 -154t-152 -64t-152 64t-63 154z" />
<glyph unicode="&#xd7;" horiz-adv-x="1257" d="M82 264l293 293l-291 291q52 46 115.5 109.5t100.5 104.5l38 40l291 -293l291 293q47 -53 110.5 -116.5t103.5 -100.5l40 -37l-291 -291l293 -293l-254 -254l-293 293l-293 -293z" />
<glyph unicode="&#xd8;" horiz-adv-x="1527" d="M82 713q0 364 182 556.5t500 192.5q141 0 268 -43l103 201l149 -76l-104 -201q266 -189 266 -630q0 -361 -181.5 -555.5t-500.5 -194.5q-151 0 -270 43l-113 -221l-150 78l115 223q-128 92 -196 250.5t-68 376.5zM551 725q0 -118 16 -209l303 588q-51 51 -116 51 q-104 0 -153.5 -101t-49.5 -329zM653 317q46 -43 113 -43q111 0 160 107.5t49 316.5q0 112 -19 209z" />
<glyph unicode="&#xd9;" horiz-adv-x="1419" d="M102 565v860h494q-14 -590 -14 -872q0 -150 44.5 -214.5t151.5 -64.5q191 0 191 277v874h348v-860q0 -602 -586 -602q-295 0 -462 159t-167 443zM354 1950q58 5 158 11t171 9l71 4l209 -418h-318z" />
<glyph unicode="&#xda;" horiz-adv-x="1419" d="M102 565v860h494q-14 -590 -14 -872q0 -150 44.5 -214.5t151.5 -64.5q191 0 191 277v874h348v-860q0 -602 -586 -602q-295 0 -462 159t-167 443zM516 1556l209 418q268 -12 399 -24l-290 -394h-318z" />
<glyph unicode="&#xdb;" horiz-adv-x="1419" d="M102 565v860h494q-14 -590 -14 -872q0 -150 44.5 -214.5t151.5 -64.5q191 0 191 277v874h348v-860q0 -602 -586 -602q-295 0 -462 159t-167 443zM299 1573l291 393h317l289 -393l-322 -17l-126 203l-125 -203q-195 5 -324 17z" />
<glyph unicode="&#xdc;" horiz-adv-x="1419" d="M102 565v860h494q-14 -590 -14 -872q0 -150 44.5 -214.5t151.5 -64.5q191 0 191 277v874h348v-860q0 -602 -586 -602q-295 0 -462 159t-167 443zM279 1774q0 89 63 152t152 63t152 -63t63 -152q0 -90 -63 -154t-152 -64t-152 64t-63 154zM786 1774q0 89 63 152t152 63 t152.5 -63t63.5 -152t-63.5 -153.5t-152.5 -64.5t-152 64t-63 154z" />
<glyph unicode="&#xdd;" horiz-adv-x="1388" d="M-41 1425h553q6 -12 50 -105.5t74 -155t73 -144t73 -129.5q44 80 135.5 284.5t114.5 249.5h398q-304 -550 -494 -864q0 -43 3 -238.5t3 -322.5h-473q6 235 8 543q-93 150 -261.5 436.5t-256.5 445.5zM545 1556l209 418q268 -12 399 -24l-291 -394h-317z" />
<glyph unicode="&#xde;" horiz-adv-x="1386" d="M123 1425h498q-5 -94 -11 -217q109 -2 207.5 -17t193 -50t163 -86.5t110 -132t41.5 -181.5q0 -86 -27.5 -160t-72.5 -126t-107.5 -94t-128 -68t-137.5 -43.5t-133.5 -24.5t-118.5 -8q2 -70 2 -217h-473q8 401 8 711q0 98 -3.5 276.5t-7.5 308.5zM594.5 774.5 q-0.5 -75.5 0.5 -169.5t1 -116q31 0 63.5 5.5t70 21.5t66 40t47.5 66t19 95q0 54 -18.5 93t-47.5 58t-64.5 31.5t-70 12t-63.5 -0.5q-3 -61 -3.5 -136.5z" />
<glyph unicode="&#xdf;" horiz-adv-x="1519" d="M137 0q13 542 13 745q0 150 -1.5 311.5t-1.5 198.5q0 127 45 224t127.5 157.5t194.5 90.5t252 30q160 0 286.5 -56.5t201.5 -167.5t75 -261q0 -78 -22.5 -144t-62.5 -113t-76.5 -76.5t-82.5 -57.5q30 -2 71.5 -14t96 -42.5t99 -74t75.5 -117.5t31 -164q0 -86 -24 -158 t-64.5 -123.5t-97.5 -91.5t-119 -64.5t-133 -40.5t-134.5 -22t-129.5 -6l4 326h13t30.5 3.5t43.5 10.5t46.5 22.5t44 38t31 59.5t12.5 83q0 40 -8 74t-20 58.5t-30.5 45.5t-34.5 34t-38 25t-34.5 16.5t-31 11t-20.5 7.5l-4 197q8 4 35.5 18t42 22t37.5 30t35 46t22 65t10 93 q0 189 -160 189q-91 0 -138.5 -52.5t-47.5 -150.5q0 -26 6 -241t14 -512.5t11 -481.5h-490z" />
<glyph unicode="&#xe0;" horiz-adv-x="1345" d="M51 254q0 77 31 138t81.5 98.5t115 66t132 44t132 30.5t115 27t81.5 32t31 47q0 53 -41.5 83t-112.5 30q-55 0 -122 -18t-123.5 -43.5t-105 -51t-75.5 -43.5l-28 -18l-88 289q9 7 27 19.5t77.5 44t124.5 55.5t167 43.5t206 19.5q272 0 403 -107.5t131 -306.5 q0 -99 10 -282.5t20 -316.5l9 -134h-440l-4 221q-19 -43 -35.5 -72t-50 -67.5t-74.5 -62t-106.5 -40t-147.5 -16.5q-149 0 -244.5 76t-95.5 215zM258 1634q58 5 158 11.5t170 10.5l71 3l209 -418h-317zM541 317q0 -90 75 -90q49 0 87.5 48.5t60 121.5t29.5 162 q-20 -15 -58 -35.5t-68.5 -38t-61 -41.5t-47.5 -56t-17 -71z" />
<glyph unicode="&#xe1;" horiz-adv-x="1345" d="M51 254q0 77 31 138t81.5 98.5t115 66t132 44t132 30.5t115 27t81.5 32t31 47q0 53 -41.5 83t-112.5 30q-55 0 -122 -18t-123.5 -43.5t-105 -51t-75.5 -43.5l-28 -18l-88 289q9 7 27 19.5t77.5 44t124.5 55.5t167 43.5t206 19.5q272 0 403 -107.5t131 -306.5 q0 -99 10 -282.5t20 -316.5l9 -134h-440l-4 221q-19 -43 -35.5 -72t-50 -67.5t-74.5 -62t-106.5 -40t-147.5 -16.5q-149 0 -244.5 76t-95.5 215zM481 1241l209 418q269 -13 400 -25l-291 -393h-318zM541 317q0 -90 75 -90q49 0 87.5 48.5t60 121.5t29.5 162 q-20 -15 -58 -35.5t-68.5 -38t-61 -41.5t-47.5 -56t-17 -71z" />
<glyph unicode="&#xe2;" horiz-adv-x="1345" d="M51 254q0 77 31 138t81.5 98.5t115 66t132 44t132 30.5t115 27t81.5 32t31 47q0 53 -41.5 83t-112.5 30q-55 0 -122 -18t-123.5 -43.5t-105 -51t-75.5 -43.5l-28 -18l-88 289q9 7 27 19.5t77.5 44t124.5 55.5t167 43.5t206 19.5q272 0 403 -107.5t131 -306.5 q0 -99 10 -282.5t20 -316.5l9 -134h-440l-4 221q-19 -43 -35.5 -72t-50 -67.5t-74.5 -62t-106.5 -40t-147.5 -16.5q-149 0 -244.5 76t-95.5 215zM223 1257l291 394h317l289 -394l-321 -16l-127 203l-125 -203q-195 4 -324 16zM541 317q0 -90 75 -90q49 0 87.5 48.5t60 121.5 t29.5 162q-20 -15 -58 -35.5t-68.5 -38t-61 -41.5t-47.5 -56t-17 -71z" />
<glyph unicode="&#xe3;" horiz-adv-x="1345" d="M51 254q0 77 31 138t81.5 98.5t115 66t132 44t132 30.5t115 27t81.5 32t31 47q0 53 -41.5 83t-112.5 30q-55 0 -122 -18t-123.5 -43.5t-105 -51t-75.5 -43.5l-28 -18l-88 289q9 7 27 19.5t77.5 44t124.5 55.5t167 43.5t206 19.5q272 0 403 -107.5t131 -306.5 q0 -99 10 -282.5t20 -316.5l9 -134h-440l-4 221q-19 -43 -35.5 -72t-50 -67.5t-74.5 -62t-106.5 -40t-147.5 -16.5q-149 0 -244.5 76t-95.5 215zM154 1272q1 7 3.5 19t13 46.5t25.5 66t42.5 69.5t61 65.5t84.5 46.5t110 19q55 0 121 -27t126.5 -53.5t102.5 -26.5 q38 0 62 26.5t29 53.5l5 27l250 -31q-1 -7 -3 -19t-12.5 -46.5t-24.5 -66t-41.5 -69.5t-61 -65.5t-85 -46.5t-112.5 -19q-43 0 -94.5 16.5t-90.5 37t-85 37t-80 16.5q-37 0 -61.5 -27t-30.5 -53l-5 -27l-247 31h-2zM541 317q0 -90 75 -90q49 0 87.5 48.5t60 121.5t29.5 162 q-20 -15 -58 -35.5t-68.5 -38t-61 -41.5t-47.5 -56t-17 -71z" />
<glyph unicode="&#xe4;" horiz-adv-x="1345" d="M51 254q0 77 31 138t81.5 98.5t115 66t132 44t132 30.5t115 27t81.5 32t31 47q0 53 -41.5 83t-112.5 30q-55 0 -122 -18t-123.5 -43.5t-105 -51t-75.5 -43.5l-28 -18l-88 289q9 7 27 19.5t77.5 44t124.5 55.5t167 43.5t206 19.5q272 0 403 -107.5t131 -306.5 q0 -99 10 -282.5t20 -316.5l9 -134h-440l-4 221q-19 -43 -35.5 -72t-50 -67.5t-74.5 -62t-106.5 -40t-147.5 -16.5q-149 0 -244.5 76t-95.5 215zM203 1458q0 89 63 152t152 63t152 -63t63 -152t-63 -153t-152 -64t-152 64t-63 153zM541 317q0 -90 75 -90q49 0 87.5 48.5 t60 121.5t29.5 162q-20 -15 -58 -35.5t-68.5 -38t-61 -41.5t-47.5 -56t-17 -71zM711 1458q0 89 63 152t152 63t152 -63t63 -152t-63 -153t-152 -64t-152 64t-63 153z" />
<glyph unicode="&#xe5;" horiz-adv-x="1345" d="M51 254q0 77 31 138t81.5 98.5t115 66t132 44t132 30.5t115 27t81.5 32t31 47q0 53 -41.5 83t-112.5 30q-55 0 -122 -18t-123.5 -43.5t-105 -51t-75.5 -43.5l-28 -18l-88 289q9 7 27 19.5t77.5 44t124.5 55.5t167 43.5t206 19.5q272 0 403 -107.5t131 -306.5 q0 -99 10 -282.5t20 -316.5l9 -134h-440l-4 221q-19 -43 -35.5 -72t-50 -67.5t-74.5 -62t-106.5 -40t-147.5 -16.5q-149 0 -244.5 76t-95.5 215zM373 1468q0 131 83 210t216 79t216 -79t83 -210q0 -132 -82.5 -210t-216.5 -78t-216.5 78t-82.5 210zM541 317q0 -90 75 -90 q49 0 87.5 48.5t60 121.5t29.5 162q-20 -15 -58 -35.5t-68.5 -38t-61 -41.5t-47.5 -56t-17 -71zM555 1468q0 -54 32 -85t85 -31t84.5 31t31.5 85q0 53 -32 86t-84 33t-84.5 -33t-32.5 -86z" />
<glyph unicode="&#xe6;" horiz-adv-x="1912" d="M51 254q0 77 31 138t81.5 98.5t115 66t132 44t132 30.5t115 27t81.5 32t31 47q0 53 -41.5 83t-112.5 30q-55 0 -122 -18t-123.5 -43.5t-105 -51t-75.5 -43.5l-28 -18l-88 289q9 7 27 19.5t77.5 44t124.5 55.5t167 43.5t206 19.5q213 0 340 -68q139 68 323 68 q238 0 368 -99.5t130 -275.5q0 -84 -38.5 -151t-102 -107.5t-143.5 -61.5t-166 -20t-166 23q0 -42 8 -76.5t27.5 -66.5t56.5 -50t90 -18q176 0 379 108l90 -264q-83 -60 -219.5 -92.5t-304.5 -32.5q-382 0 -529 232q-134 -232 -428 -232q-149 0 -244.5 76t-95.5 215z M541 317q0 -90 75 -90q49 0 87.5 48.5t60 121.5t29.5 162q-20 -15 -58 -35.5t-68.5 -38t-61 -41.5t-47.5 -56t-17 -71zM1214 606q31 -7 63 -9t70.5 5.5t68 26t49.5 57t20 94.5q0 105 -92 105q-86 0 -130 -79t-49 -200z" />
<glyph unicode="&#xe7;" horiz-adv-x="1148" d="M82 553q0 149 44.5 263.5t126.5 186.5t192.5 108t246.5 36q137 0 243.5 -34.5t170.5 -86.5l-94 -281q-72 43 -125 62.5t-123 19.5q-100 0 -144.5 -69.5t-44.5 -204.5q0 -136 44.5 -203t144.5 -67q54 0 105 15t81.5 31.5t89.5 53.5l99 -295q-3 -1 -38 -19.5t-46.5 -23.5 t-46 -21t-58 -22t-60 -16t-74 -14.5t-79.5 -6.5l-16 -86q118 -6 190 -58t72 -151q0 -56 -32.5 -100.5t-85.5 -70t-114.5 -39t-125.5 -13.5q-59 0 -117 11.5t-86 22.5l-29 11l35 139q90 -32 166 -32q117 0 117 73q0 34 -22.5 54t-59.5 20q-21 0 -42.5 -3.5t-32.5 -6.5l-11 -4 l-58 28l80 213q-228 29 -355.5 170t-127.5 410z" />
<glyph unicode="&#xe8;" horiz-adv-x="1263" d="M82 553q0 149 44.5 263.5t126 186t192 108t245.5 36.5q238 0 368 -99.5t130 -275.5q0 -84 -38.5 -151t-102.5 -107.5t-144 -61.5t-166 -20t-166 23q0 -42 8.5 -76.5t27.5 -66.5t56.5 -50t90.5 -18q176 0 379 108l90 -264q-83 -60 -220 -92.5t-305 -32.5q-109 0 -201 20 t-169.5 64.5t-131.5 112t-84 167.5t-30 226zM250 1634q58 5 158 11.5t170 10.5l71 3l209 -418h-317zM565 606q31 -7 63 -9t70.5 5.5t68 26t49.5 57t20 94.5q0 105 -93 105q-86 0 -129.5 -79t-48.5 -200z" />
<glyph unicode="&#xe9;" horiz-adv-x="1263" d="M82 553q0 149 44.5 263.5t126 186t192 108t245.5 36.5q238 0 368 -99.5t130 -275.5q0 -84 -38.5 -151t-102.5 -107.5t-144 -61.5t-166 -20t-166 23q0 -42 8.5 -76.5t27.5 -66.5t56.5 -50t90.5 -18q176 0 379 108l90 -264q-83 -60 -220 -92.5t-305 -32.5q-109 0 -201 20 t-169.5 64.5t-131.5 112t-84 167.5t-30 226zM498 1241l209 418q268 -13 399 -25l-291 -393h-317zM565 606q31 -7 63 -9t70.5 5.5t68 26t49.5 57t20 94.5q0 105 -93 105q-86 0 -129.5 -79t-48.5 -200z" />
<glyph unicode="&#xea;" horiz-adv-x="1263" d="M82 553q0 149 44.5 263.5t126 186t192 108t245.5 36.5q238 0 368 -99.5t130 -275.5q0 -84 -38.5 -151t-102.5 -107.5t-144 -61.5t-166 -20t-166 23q0 -42 8.5 -76.5t27.5 -66.5t56.5 -50t90.5 -18q176 0 379 108l90 -264q-83 -60 -220 -92.5t-305 -32.5q-109 0 -201 20 t-169.5 64.5t-131.5 112t-84 167.5t-30 226zM229 1257l291 394h318l288 -394l-321 -16l-127 203l-125 -203q-195 4 -324 16zM565 606q31 -7 63 -9t70.5 5.5t68 26t49.5 57t20 94.5q0 105 -93 105q-86 0 -129.5 -79t-48.5 -200z" />
<glyph unicode="&#xeb;" horiz-adv-x="1263" d="M82 553q0 149 44.5 263.5t126 186t192 108t245.5 36.5q238 0 368 -99.5t130 -275.5q0 -84 -38.5 -151t-102.5 -107.5t-144 -61.5t-166 -20t-166 23q0 -42 8.5 -76.5t27.5 -66.5t56.5 -50t90.5 -18q176 0 379 108l90 -264q-83 -60 -220 -92.5t-305 -32.5q-109 0 -201 20 t-169.5 64.5t-131.5 112t-84 167.5t-30 226zM207 1458q0 89 63 152t152 63t152 -63t63 -152t-63 -153t-152 -64t-152 64t-63 153zM565 606q31 -7 63 -9t70.5 5.5t68 26t49.5 57t20 94.5q0 105 -93 105q-86 0 -129.5 -79t-48.5 -200zM715 1458q0 89 63 152t152 63t152 -63 t63 -152t-63 -153t-152 -64t-152 64t-63 153z" />
<glyph unicode="&#xec;" horiz-adv-x="757" d="M23 1634q58 5 158 11.5t171 10.5l70 3l209 -418h-318zM123 1110q102 -5 230 -5t205 3l77 2q-25 -322 -25 -555q0 -213 8 -555h-489q14 319 14 565q0 101 -5 237t-10 222z" />
<glyph unicode="&#xed;" horiz-adv-x="757" d="M123 1110q102 -5 230 -5t205 3l77 2q-25 -322 -25 -555q0 -213 8 -555h-489q14 319 14 565q0 101 -5 237t-10 222zM127 1241l209 418q268 -13 399 -25l-291 -393h-317z" />
<glyph unicode="&#xee;" horiz-adv-x="757" d="M-70 1257l291 394h318l288 -394l-321 -16l-127 203l-125 -203q-195 4 -324 16zM123 1110q102 -5 230 -5t205 3l77 2q-25 -322 -25 -555q0 -213 8 -555h-489q14 319 14 565q0 101 -5 237t-10 222z" />
<glyph unicode="&#xef;" horiz-adv-x="757" d="M-90 1458q0 89 63 152t152 63t152 -63t63 -152t-63 -153t-152 -64t-152 64t-63 153zM123 1110q102 -5 230 -5t205 3l77 2q-25 -322 -25 -555q0 -213 8 -555h-489q14 319 14 565q0 101 -5 237t-10 222zM418 1458q0 89 63 152t152 63t152 -63t63 -152t-63 -153t-152 -64 t-152 64t-63 153z" />
<glyph unicode="&#xf0;" horiz-adv-x="1507" d="M82 526q0 262 161.5 423t426.5 161q241 0 356 -178q-83 212 -281 334l-63 -105l-143 86l53 92q-108 38 -273 66l164 362q161 -33 308 -96l57 96l145 -86l-53 -88q485 -297 485 -903q0 -214 -79.5 -378t-232.5 -256.5t-359 -92.5q-311 0 -491.5 152.5t-180.5 410.5z M561 553q0 -134 48 -210.5t147 -76.5q56 0 94.5 22.5t58.5 65t28.5 93t8.5 116.5q0 118 -51 189t-168 71q-85 0 -125.5 -75t-40.5 -195z" />
<glyph unicode="&#xf1;" horiz-adv-x="1536" d="M123 0q14 449 14 856q0 164 -2 254h477q-3 -117 -6 -190q42 104 142.5 165.5t255.5 61.5q196 0 295.5 -109t99.5 -299q0 -281 14 -739h-498q0 23 5.5 236t5.5 317q0 141 -37.5 215t-130.5 74q-48 0 -80.5 -23.5t-48.5 -67t-22.5 -90.5t-6.5 -108q0 -238 14 -553h-491z M242 1272q1 7 3.5 19t13 46.5t25.5 66t42.5 69.5t61 65.5t84.5 46.5t110 19q55 0 121 -27t126.5 -53.5t102.5 -26.5q38 0 62 26.5t29 53.5l5 27l250 -31q-1 -7 -3 -19t-12.5 -46.5t-24.5 -66t-41.5 -69.5t-61 -65.5t-85 -46.5t-112.5 -19q-43 0 -94.5 16.5t-90.5 37t-85 37 t-80 16.5q-37 0 -61 -27t-29 -53l-6 -27l-248 31h-2z" />
<glyph unicode="&#xf2;" horiz-adv-x="1507" d="M82 559q0 274 180 431t492 157q314 0 492.5 -157t178.5 -431q0 -271 -179.5 -433.5t-491.5 -162.5q-310 0 -491 163t-181 433zM334 1634q58 5 158 11.5t170 10.5l71 3l209 -418h-317zM561 567q0 -137 48 -217t147 -80q56 0 94 22t58 63t28 87.5t8 106.5q0 82 -17 145.5 t-64 108.5t-120 45q-99 0 -140.5 -71t-41.5 -210z" />
<glyph unicode="&#xf3;" horiz-adv-x="1507" d="M82 559q0 274 180 431t492 157q314 0 492.5 -157t178.5 -431q0 -271 -179.5 -433.5t-491.5 -162.5q-310 0 -491 163t-181 433zM561 567q0 -137 48 -217t147 -80q56 0 94 22t58 63t28 87.5t8 106.5q0 82 -17 145.5t-64 108.5t-120 45q-99 0 -140.5 -71t-41.5 -210z M565 1241l209 418q269 -13 400 -25l-291 -393h-318z" />
<glyph unicode="&#xf4;" horiz-adv-x="1507" d="M82 559q0 274 180 431t492 157q314 0 492.5 -157t178.5 -431q0 -271 -179.5 -433.5t-491.5 -162.5q-310 0 -491 163t-181 433zM305 1257l291 394h317l289 -394l-321 -16l-127 203l-125 -203q-195 4 -324 16zM561 567q0 -137 48 -217t147 -80q56 0 94 22t58 63t28 87.5 t8 106.5q0 82 -17 145.5t-64 108.5t-120 45q-99 0 -140.5 -71t-41.5 -210z" />
<glyph unicode="&#xf5;" horiz-adv-x="1507" d="M82 559q0 274 180 431t492 157q314 0 492.5 -157t178.5 -431q0 -271 -179.5 -433.5t-491.5 -162.5q-310 0 -491 163t-181 433zM236 1272q1 7 3.5 19t13 46.5t25 66t42 69.5t61 65.5t84.5 46.5t110 19q55 0 121 -27t127 -53.5t103 -26.5q38 0 62 26.5t29 53.5l5 27 l250 -31q-1 -7 -3 -19t-12.5 -46.5t-24.5 -66t-41.5 -69.5t-61 -65.5t-85 -46.5t-112.5 -19q-43 0 -94.5 16.5t-90.5 37t-85 37t-80 16.5q-37 0 -61.5 -27t-30.5 -53l-5 -27l-247 31h-2zM561 567q0 -137 48 -217t147 -80q56 0 94 22t58 63t28 87.5t8 106.5q0 82 -17 145.5 t-64 108.5t-120 45q-99 0 -140.5 -71t-41.5 -210z" />
<glyph unicode="&#xf6;" horiz-adv-x="1507" d="M82 559q0 274 180 431t492 157q314 0 492.5 -157t178.5 -431q0 -271 -179.5 -433.5t-491.5 -162.5q-310 0 -491 163t-181 433zM285 1458q0 89 63 152t152 63t152 -63t63 -152t-63 -153t-152 -64t-152 64t-63 153zM561 567q0 -137 48 -217t147 -80q56 0 94 22t58 63 t28 87.5t8 106.5q0 82 -17 145.5t-64 108.5t-120 45q-99 0 -140.5 -71t-41.5 -210zM793 1458q0 89 63 152t152 63t152 -63t63 -152t-63 -153t-152 -64t-152 64t-63 153z" />
<glyph unicode="&#xf7;" horiz-adv-x="1271" d="M82 377v358h1108q-4 -70 -4 -159.5t2 -143.5l2 -55h-1108zM444 139q0 74 52 125t127 51q72 0 124 -51.5t52 -124.5t-52 -124.5t-124 -51.5q-75 0 -127 51t-52 125zM444 971q0 74 52 125t127 51q72 0 124 -51.5t52 -124.5t-52 -124.5t-124 -51.5q-75 0 -127 51t-52 125z " />
<glyph unicode="&#xf8;" horiz-adv-x="1507" d="M82 559q0 274 180 431t492 157q95 0 202 -21l103 197l149 -76l-90 -174q148 -71 227.5 -203t79.5 -311q0 -271 -179.5 -433.5t-491.5 -162.5q-92 0 -195 21l-100 -199l-150 78l88 174q-152 72 -233.5 206.5t-81.5 315.5zM561 567q0 -96 25 -166l223 437q-33 10 -66 10 q-99 0 -140.5 -71t-41.5 -210zM709 274q28 -4 47 -4q56 0 94 22t58 63t28 87.5t8 106.5q0 79 -18 147z" />
<glyph unicode="&#xf9;" horiz-adv-x="1488" d="M123 406q0 67 2 240t2.5 267t-2.5 197h481q0 -10 -5 -229t-5 -324q0 -71 6 -120t21.5 -89.5t45.5 -60t76 -19.5q36 0 62 16.5t40.5 42t23.5 65.5t11.5 78t2.5 87q0 171 -17 553h496q-14 -449 -14 -856q0 -91 22 -254h-473l-18 190q-88 -227 -377 -227q-180 0 -280.5 114 t-100.5 329zM311 1634q58 5 158 11.5t171 10.5l71 3l209 -418h-318z" />
<glyph unicode="&#xfa;" horiz-adv-x="1488" d="M123 406q0 67 2 240t2.5 267t-2.5 197h481q0 -10 -5 -229t-5 -324q0 -71 6 -120t21.5 -89.5t45.5 -60t76 -19.5q36 0 62 16.5t40.5 42t23.5 65.5t11.5 78t2.5 87q0 171 -17 553h496q-14 -449 -14 -856q0 -91 22 -254h-473l-18 190q-88 -227 -377 -227q-180 0 -280.5 114 t-100.5 329zM569 1241l209 418q269 -13 400 -25l-291 -393h-318z" />
<glyph unicode="&#xfb;" horiz-adv-x="1488" d="M123 406q0 67 2 240t2.5 267t-2.5 197h481q0 -10 -5 -229t-5 -324q0 -71 6 -120t21.5 -89.5t45.5 -60t76 -19.5q36 0 62 16.5t40.5 42t23.5 65.5t11.5 78t2.5 87q0 171 -17 553h496q-14 -449 -14 -856q0 -91 22 -254h-473l-18 190q-88 -227 -377 -227q-180 0 -280.5 114 t-100.5 329zM291 1257l291 394h317l289 -394l-322 -16l-127 203l-125 -203q-194 4 -323 16z" />
<glyph unicode="&#xfc;" horiz-adv-x="1488" d="M123 406q0 67 2 240t2.5 267t-2.5 197h481q0 -10 -5 -229t-5 -324q0 -71 6 -120t21.5 -89.5t45.5 -60t76 -19.5q36 0 62 16.5t40.5 42t23.5 65.5t11.5 78t2.5 87q0 171 -17 553h496q-14 -449 -14 -856q0 -91 22 -254h-473l-18 190q-88 -227 -377 -227q-180 0 -280.5 114 t-100.5 329zM270 1458q0 89 63 152t152 63t152 -63t63 -152t-63 -153t-152 -64t-152 64t-63 153zM778 1458q0 89 63 152t152 63t152 -63t63 -152t-63 -153t-152 -64t-152 64t-63 153z" />
<glyph unicode="&#xfd;" horiz-adv-x="1241" d="M-420 -358q190 0 340.5 31t261.5 95t170.5 168.5t59.5 243.5q0 63 -15.5 120t-41.5 99.5t-60 80t-72 63.5t-75.5 47.5t-71.5 34.5t-60 21.5t-42 11.5l-15 4l102 485q9 -2 25 -5t65 -17.5t97 -33t112.5 -53t120 -76t112.5 -103.5t97 -134t65 -169t25 -206q25 69 41.5 137 t28.5 163.5t11 203t-11 256.5h350q0 -250 -53 -482t-148.5 -424.5t-233.5 -351.5t-304.5 -269t-365 -170t-410.5 -60zM457 1241l209 418q268 -13 399 -25l-291 -393h-317z" />
<glyph unicode="&#xfe;" horiz-adv-x="1550" d="M123 -610q20 550 20 862q0 182 -5 549t-10 643l-5 276q103 -5 233 -5t208 3l79 2q-35 -511 -41 -821q15 45 43 87t70.5 79t105.5 59.5t137 22.5q229 0 369.5 -160.5t140.5 -429.5q0 -271 -137.5 -432.5t-365.5 -161.5q-125 0 -218.5 62.5t-134.5 164.5q4 -138 11.5 -338 t13.5 -331l6 -131q-289 12 -520 0zM582 557q0 -58 10.5 -107.5t33.5 -91.5t63.5 -66t96.5 -24q189 0 189 289t-189 289q-56 0 -96.5 -24t-63.5 -66t-33.5 -91.5t-10.5 -107.5z" />
<glyph unicode="&#xff;" horiz-adv-x="1241" d="M-420 -358q190 0 340.5 31t261.5 95t170.5 168.5t59.5 243.5q0 63 -15.5 120t-41.5 99.5t-60 80t-72 63.5t-75.5 47.5t-71.5 34.5t-60 21.5t-42 11.5l-15 4l102 485q9 -2 25 -5t65 -17.5t97 -33t112.5 -53t120 -76t112.5 -103.5t97 -134t65 -169t25 -206q25 69 41.5 137 t28.5 163.5t11 203t-11 256.5h350q0 -250 -53 -482t-148.5 -424.5t-233.5 -351.5t-304.5 -269t-365 -170t-410.5 -60zM197 1458q0 89 63 152t152 63t152 -63t63 -152t-63 -153t-152 -64t-152 64t-63 153zM705 1458q0 89 63 152t152 63t152 -63t63 -152t-63 -153t-152 -64 t-152 64t-63 153z" />
<glyph unicode="&#x152;" horiz-adv-x="2064" d="M82 713q0 364 182 556.5t500 192.5q140 0 252 -37h934v-305h-506l-8 -332q37 40 97.5 69.5t137.5 29.5q88 0 136 -49t48 -117q0 -72 -51.5 -116t-136.5 -44q-43 0 -104.5 30t-81.5 30q-45 0 -45 -56q2 -210 2 -233l585 20q-30 -202 -32 -352h-975q-112 -37 -252 -37 q-317 0 -499.5 195t-182.5 555zM551 725q0 -451 215 -451q111 0 160 107.5t49 316.5q0 208 -55 332.5t-166 124.5q-104 0 -153.5 -101t-49.5 -329z" />
<glyph unicode="&#x153;" horiz-adv-x="2121" d="M82 559q0 274 180 431t492 157q240 0 413 -100q147 100 381 100q238 0 368 -99.5t130 -275.5q0 -84 -38.5 -151t-102 -107.5t-143.5 -61.5t-166 -20t-166 23q0 -42 8 -76.5t27.5 -66.5t56.5 -50t90 -18q176 0 379 108l90 -264q-83 -60 -220 -92.5t-305 -32.5 q-246 0 -397 100q-168 -100 -405 -100q-310 0 -491 163t-181 433zM561 567q0 -137 48 -217t147 -80q56 0 94 22t58 63t28 87.5t8 106.5q0 82 -17 145.5t-64 108.5t-120 45q-99 0 -140.5 -71t-41.5 -210zM1423 606q31 -7 63 -9t70.5 5.5t68 26t49.5 57t20 94.5q0 105 -92 105 q-86 0 -130 -79t-49 -200z" />
<glyph unicode="&#x178;" horiz-adv-x="1388" d="M-41 1425h553q6 -12 50 -105.5t74 -155t73 -144t73 -129.5q44 80 135.5 284.5t114.5 249.5h398q-304 -550 -494 -864q0 -43 3 -238.5t3 -322.5h-473q6 235 8 543q-93 150 -261.5 436.5t-256.5 445.5zM299 1774q0 89 63 152t152 63t152 -63t63 -152q0 -90 -63 -154 t-152 -64t-152 64t-63 154zM807 1774q0 89 63 152t152 63t152 -63t63 -152q0 -90 -63 -154t-152 -64t-152 64t-63 154z" />
<glyph unicode="&#x2c6;" horiz-adv-x="999" d="M51 1257l291 394h317l289 -394l-321 -16l-127 203l-125 -203q-195 4 -324 16z" />
<glyph unicode="&#x2dc;" horiz-adv-x="1138" d="M51 1272q1 7 3.5 19t13 46.5t25.5 66t42.5 69.5t61 65.5t84.5 46.5t110 19q55 0 121 -27t126.5 -53.5t102.5 -26.5q24 0 43 11t28.5 26.5t16 31.5t7.5 27l2 11l249 -31q-1 -7 -3 -19t-12.5 -46.5t-24.5 -66t-41 -69.5t-60.5 -65.5t-85 -46.5t-112.5 -19q-55 0 -121 26.5 t-127 53.5t-103 27q-37 0 -61 -27t-30 -53l-5 -27l-248 31h-2z" />
<glyph unicode="&#x2000;" horiz-adv-x="994" />
<glyph unicode="&#x2001;" horiz-adv-x="1989" />
<glyph unicode="&#x2002;" horiz-adv-x="994" />
<glyph unicode="&#x2003;" horiz-adv-x="1989" />
<glyph unicode="&#x2004;" horiz-adv-x="663" />
<glyph unicode="&#x2005;" horiz-adv-x="497" />
<glyph unicode="&#x2006;" horiz-adv-x="331" />
<glyph unicode="&#x2007;" horiz-adv-x="331" />
<glyph unicode="&#x2008;" horiz-adv-x="248" />
<glyph unicode="&#x2009;" horiz-adv-x="397" />
<glyph unicode="&#x200a;" horiz-adv-x="110" />
<glyph unicode="&#x2010;" horiz-adv-x="786" d="M82 377l4 358h619l-3 -358h-620z" />
<glyph unicode="&#x2011;" horiz-adv-x="786" d="M82 377l4 358h619l-3 -358h-620z" />
<glyph unicode="&#x2012;" horiz-adv-x="786" d="M82 377l4 358h619l-3 -358h-620z" />
<glyph unicode="&#x2013;" horiz-adv-x="1073" d="M41 416v319h991q-3 -63 -3 -142.5t1 -128.5l2 -48h-991z" />
<glyph unicode="&#x2014;" horiz-adv-x="2060" d="M0 416v319h2060q-4 -63 -4.5 -142.5t0.5 -128.5l2 -48h-2058z" />
<glyph unicode="&#x2018;" horiz-adv-x="546" d="M20 989q0 51 21.5 117.5t51.5 125t61 109.5t52.5 81t22.5 30l277 -49l-88 -387l43 -254h-1h-1h-1h-1h-1h-1h-1h-1h-1h-1h-1h-1h-1h-1h-1h-1h-1h-1h-1h-1h-1h-1h-1h-1h-1h-1h-1h-1h-1h-1h-1h-1h-1h-1h-1h-1h-1h-1h-1h-1h-1h-1h-1h-1h-1h-1h-1h-1h-1h-1h-1h-1h-1h-1h-1h-1 h-1h-1h-1h-1h-1h-1h-1h-1h-1h-1h-1h-1h-1h-1h-1h-1h-2h-1h-1h-1h-1h-1h-1h-1h-1h-1h-2h-1h-1h-1h-1h-1h-1h-2h-1h-1h-1h-1h-1h-2h-1h-1h-1h-1h-2h-1h-1h-1h-2h-1h-1h-1h-1h-2h-1h-1h-2h-1h-1h-1h-2h-1h-1h-2h-1h-1h-2h-1h-1h-2h-1h-1h-2h-1h-1h-2h-1h-1h-2h-1h-1h-2h-1h-2 h-1h-1h-2h-1h-2h-1h-1h-2h-1h-2h-1h-2h-1h-1h-2h-1h-2h-1h-2h-1h-2h-1h-2h-1h-2h-1h-2h-1h-2h-1h-2h-1h-2h-1h-2h-1h-2h-1h-2h-2h-1h-2h-1h-2h-1h-2h-1h-2h-2h-1h-2h-1h-2h-2h-1h-2h-1h-2h-2h-1h-2h-2h-1h-2h-1h-2h-2h-1h-2h-2h-1h-2h-2h-1h-2h-2h-1h-2h-2h-1h-2h-2h-2h-1 h-2h-2h-1h-2h-2h-2h-1h-2h-2h-2h-1h-2h-2h-2h-1h-2h-2h-2h-1h-2h-2h-2h-2h-1h-2h-2h-2h-2h-1h-2h-2h-2h-2h-2h-1h-2h-2h-2h-2h-2h-1h-2h-2h-2h-2h-2h-2h-2h-2h-1h-2h-2h-2h-2h-10l-4 8q-4 9 -11 28.5t-14 44.5t-12 64.5t-5 81.5z" />
<glyph unicode="&#x2019;" horiz-adv-x="546" d="M41 784l88 387l-43 254h1h1h1h1h1h1h1h1h1h1h1h1h1h1h1h1h1h1h1h1h1h1h1h1h1h1h1h1h1h1h1h1h1h1h1h1h1h1h1h1h1h1h1h1h1h1h1h1h1h1h1h1h1h1h1h1h1h1h1h1h1h1h1h1h1h1h1h1h1h1h1h1h2h1h1h1h1h1h1h1h1h1h2h1h1h1h1h1h1h2h1h1h1h1h1h2h1h1h1h1h2h1h1h1h2h1h1h1h1h2h1h1h2h1 h1h1h2h1h1h2h1h1h2h1h1h2h1h1h2h1h1h2h1h1h2h1h1h2h1h2h1h1h2h1h2h1h1h2h1h2h1h2h1h1h2h1h2h1h2h1h2h1h2h1h2h1h2h1h2h1h2h1h2h1h2h1h2h1h2h2h1h2h1h2h1h2h1h2h2h1h2h1h2h2h1h2h1h2h2h1h2h2h1h2h1h2h2h1h2h2h1h2h2h1h2h2h1h2h2h1h2h2h2h1h2h2h1h2h2h2h1h2h2h2h1h2h2h2h1h2h2 h2h1h2h2h2h2h1h2h2h2h2h1h2h2h2h2h2h1h2h2h2h2h2h1h2h2h2h2h2h2h2h2h1h2h2h2h2h10l4 -9q4 -8 11 -27.5t13.5 -44.5t11.5 -64.5t5 -81.5q0 -51 -21.5 -117.5t-51.5 -125t-61 -109.5t-52.5 -81t-22.5 -30z" />
<glyph unicode="&#x201a;" horiz-adv-x="546" d="M41 -195l88 388l-43 253h1h1h1h1h1h1h1h1h1h1h1h1h1h1h1h1h1h1h1h1h1h1h1h1h1h1h1h1h1h1h1h1h1h1h1h1h1h1h1h1h1h1h1h1h1h1h1h1h1h1h1h1h1h1h1h1h1h1h1h1h1h1h1h1h1h1h1h1h1h1h1h1h2h1h1h1h1h1h1h1h1h1h2h1h1h1h1h1h1h2h1h1h1h1h1h2h1h1h1h1h2h1h1h1h2h1h1h1h1h2h1h1h2h1 h1h1h2h1h1h2h1h1h2h1h1h2h1h1h2h1h1h2h1h1h2h1h1h2h1h2h1h1h2h1h2h1h1h2h1h2h1h2h1h1h2h1h2h1h2h1h2h1h2h1h2h1h2h1h2h1h2h1h2h1h2h1h2h1h2h2h1h2h1h2h1h2h1h2h2h1h2h1h2h2h1h2h1h2h2h1h2h2h1h2h1h2h2h1h2h2h1h2h2h1h2h2h1h2h2h1h2h2h2h1h2h2h1h2h2h2h1h2h2h2h1h2h2h2h1h2h2 h2h1h2h2h2h2h1h2h2h2h2h1h2h2h2h2h2h1h2h2h2h2h2h1h2h2h2h2h2h2h2h2h1h2h2h2h2h10l4 -8q4 -9 11 -28.5t13.5 -44.5t11.5 -64.5t5 -81.5q0 -51 -21.5 -117.5t-51.5 -125t-61 -109.5t-52.5 -81t-22.5 -30z" />
<glyph unicode="&#x201c;" horiz-adv-x="1081" d="M20 989q0 51 21.5 117.5t51.5 125t61 109.5t52.5 81t22.5 30l277 -49l-88 -387l43 -254h-1h-1h-1h-1h-1h-1h-1h-1h-1h-1h-1h-1h-1h-1h-1h-1h-1h-1h-1h-1h-1h-1h-1h-1h-1h-1h-1h-1h-1h-1h-1h-1h-1h-1h-1h-1h-1h-1h-1h-1h-1h-1h-1h-1h-1h-1h-1h-1h-1h-1h-1h-1h-1h-1h-1h-1 h-1h-1h-1h-1h-1h-1h-1h-1h-1h-1h-1h-1h-1h-1h-1h-1h-2h-1h-1h-1h-1h-1h-1h-1h-1h-1h-2h-1h-1h-1h-1h-1h-1h-2h-1h-1h-1h-1h-1h-2h-1h-1h-1h-1h-2h-1h-1h-1h-2h-1h-1h-1h-1h-2h-1h-1h-2h-1h-1h-1h-2h-1h-1h-2h-1h-1h-2h-1h-1h-2h-1h-1h-2h-1h-1h-2h-1h-1h-2h-1h-1h-2h-1h-2 h-1h-1h-2h-1h-2h-1h-1h-2h-1h-2h-1h-2h-1h-1h-2h-1h-2h-1h-2h-1h-2h-1h-2h-1h-2h-1h-2h-1h-2h-1h-2h-1h-2h-1h-2h-1h-2h-1h-2h-2h-1h-2h-1h-2h-1h-2h-1h-2h-2h-1h-2h-1h-2h-2h-1h-2h-1h-2h-2h-1h-2h-2h-1h-2h-1h-2h-2h-1h-2h-2h-1h-2h-2h-1h-2h-2h-1h-2h-2h-1h-2h-2h-2h-1 h-2h-2h-1h-2h-2h-2h-1h-2h-2h-2h-1h-2h-2h-2h-1h-2h-2h-2h-1h-2h-2h-2h-2h-1h-2h-2h-2h-2h-1h-2h-2h-2h-2h-2h-1h-2h-2h-2h-2h-2h-1h-2h-2h-2h-2h-2h-2h-2h-2h-1h-2h-2h-2h-2h-10l-4 8q-4 9 -11 28.5t-14 44.5t-12 64.5t-5 81.5zM555 989q0 51 21.5 117.5t51.5 125t61 109.5 t52.5 81t22.5 30l276 -49l-88 -387l43 -254h-1h-1h-1h-1h-1h-1h-1h-1h-1h-1h-1h-1h-1h-1h-1h-1h-1h-1h-1h-1h-1h-1h-1h-1h-1h-1h-1h-1h-1h-1h-1h-1h-1h-1h-1h-1h-1h-1h-1h-1h-1h-1h-1h-1h-1h-1h-1h-1h-1h-1h-1h-1h-1h-1h-1h-1h-1h-1h-1h-1h-1h-1h-1h-1h-1h-1h-1h-1h-1h-1h-1 h-1h-2h-1h-1h-1h-1h-1h-1h-1h-1h-1h-2h-1h-1h-1h-1h-1h-1h-2h-1h-1h-1h-1h-1h-2h-1h-1h-1h-1h-2h-1h-1h-1h-2h-1h-1h-1h-1h-2h-1h-1h-2h-1h-1h-1h-2h-1h-1h-2h-1h-1h-2h-1h-1h-2h-1h-1h-2h-1h-1h-2h-1h-1h-2h-1h-1h-2h-1h-2h-1h-1h-2h-1h-2h-1h-1h-2h-1h-2h-1h-2h-1h-1h-2 h-1h-2h-1h-2h-1h-2h-1h-2h-1h-2h-1h-2h-1h-2h-1h-2h-1h-2h-1h-2h-1h-2h-1h-2h-2h-1h-2h-1h-2h-1h-2h-1h-2h-2h-1h-2h-1h-2h-2h-1h-2h-1h-2h-2h-1h-2h-2h-1h-2h-1h-2h-2h-1h-2h-2h-1h-2h-2h-1h-2h-2h-1h-2h-2h-1h-2h-2h-2h-1h-2h-2h-1h-2h-2h-2h-1h-2h-2h-2h-1h-2h-2h-2h-1 h-2h-2h-2h-1h-2h-2h-2h-2h-1h-2h-2h-2h-2h-1h-2h-2h-2h-2h-2h-1h-2h-2h-2h-2h-2h-1h-2h-2h-2h-2h-2h-2h-2h-2h-1h-2h-2h-2h-2h-10l-4 8q-4 9 -11 28.5t-13.5 44.5t-11.5 64.5t-5 81.5z" />
<glyph unicode="&#x201d;" horiz-adv-x="1081" d="M41 784l88 387l-43 254h1h1h1h1h1h1h1h1h1h1h1h1h1h1h1h1h1h1h1h1h1h1h1h1h1h1h1h1h1h1h1h1h1h1h1h1h1h1h1h1h1h1h1h1h1h1h1h1h1h1h1h1h1h1h1h1h1h1h1h1h1h1h1h1h1h1h1h1h1h1h1h1h2h1h1h1h1h1h1h1h1h1h2h1h1h1h1h1h1h2h1h1h1h1h1h2h1h1h1h1h2h1h1h1h2h1h1h1h1h2h1h1h2h1 h1h1h2h1h1h2h1h1h2h1h1h2h1h1h2h1h1h2h1h1h2h1h1h2h1h2h1h1h2h1h2h1h1h2h1h2h1h2h1h1h2h1h2h1h2h1h2h1h2h1h2h1h2h1h2h1h2h1h2h1h2h1h2h1h2h2h1h2h1h2h1h2h1h2h2h1h2h1h2h2h1h2h1h2h2h1h2h2h1h2h1h2h2h1h2h2h1h2h2h1h2h2h1h2h2h1h2h2h2h1h2h2h1h2h2h2h1h2h2h2h1h2h2h2h1h2h2 h2h1h2h2h2h2h1h2h2h2h2h1h2h2h2h2h2h1h2h2h2h2h2h1h2h2h2h2h2h2h2h2h1h2h2h2h2h10l4 -9q4 -8 11 -27.5t13.5 -44.5t11.5 -64.5t5 -81.5q0 -51 -21.5 -117.5t-51.5 -125t-61 -109.5t-52.5 -81t-22.5 -30zM575 784l89 387l-43 254h1h1h1h1h1h1h1h1h1h1h1h1h1h1h1h1h1h1h1h1h1 h1h1h1h1h1h1h1h1h1h1h1h1h1h1h1h1h1h1h1h1h1h1h1h1h1h1h1h1h1h1h1h1h1h1h1h1h1h1h1h1h1h1h1h1h1h1h1h1h1h1h1h2h1h1h1h1h1h1h1h1h1h2h1h1h1h1h1h1h2h1h1h1h1h1h2h1h1h1h1h2h1h1h1h2h1h1h1h1h2h1h1h2h1h1h1h2h1h1h2h1h1h2h1h1h2h1h1h2h1h1h2h1h1h2h1h1h2h1h2h1h1h2h1h2h1h1h2 h1h2h1h2h1h1h2h1h2h1h2h1h2h1h2h1h2h1h2h1h2h1h2h1h2h1h2h1h2h1h2h2h1h2h1h2h1h2h1h2h2h1h2h1h2h2h1h2h1h2h2h1h2h2h1h2h1h2h2h1h2h2h1h2h2h1h2h2h1h2h2h1h2h2h2h1h2h2h1h2h2h2h1h2h2h2h1h2h2h2h1h2h2h2h1h2h2h2h2h1h2h2h2h2h1h2h2h2h2h2h1h2h2h2h2h2h1h2h2h2h2h2h2h2h2h1h2 h2h2h2h10l4 -9q4 -8 11 -27.5t13.5 -44.5t11.5 -64.5t5 -81.5q0 -51 -21.5 -117.5t-51.5 -125t-61 -109.5t-52.5 -81t-22.5 -30z" />
<glyph unicode="&#x201e;" horiz-adv-x="1081" d="M41 -195l88 388l-43 253h1h1h1h1h1h1h1h1h1h1h1h1h1h1h1h1h1h1h1h1h1h1h1h1h1h1h1h1h1h1h1h1h1h1h1h1h1h1h1h1h1h1h1h1h1h1h1h1h1h1h1h1h1h1h1h1h1h1h1h1h1h1h1h1h1h1h1h1h1h1h1h1h2h1h1h1h1h1h1h1h1h1h2h1h1h1h1h1h1h2h1h1h1h1h1h2h1h1h1h1h2h1h1h1h2h1h1h1h1h2h1h1h2h1 h1h1h2h1h1h2h1h1h2h1h1h2h1h1h2h1h1h2h1h1h2h1h1h2h1h2h1h1h2h1h2h1h1h2h1h2h1h2h1h1h2h1h2h1h2h1h2h1h2h1h2h1h2h1h2h1h2h1h2h1h2h1h2h1h2h2h1h2h1h2h1h2h1h2h2h1h2h1h2h2h1h2h1h2h2h1h2h2h1h2h1h2h2h1h2h2h1h2h2h1h2h2h1h2h2h1h2h2h2h1h2h2h1h2h2h2h1h2h2h2h1h2h2h2h1h2h2 h2h1h2h2h2h2h1h2h2h2h2h1h2h2h2h2h2h1h2h2h2h2h2h1h2h2h2h2h2h2h2h2h1h2h2h2h2h10l4 -8q4 -9 11 -28.5t13.5 -44.5t11.5 -64.5t5 -81.5q0 -51 -21.5 -117.5t-51.5 -125t-61 -109.5t-52.5 -81t-22.5 -30zM575 -195l89 388l-43 253h1h1h1h1h1h1h1h1h1h1h1h1h1h1h1h1h1h1h1h1h1 h1h1h1h1h1h1h1h1h1h1h1h1h1h1h1h1h1h1h1h1h1h1h1h1h1h1h1h1h1h1h1h1h1h1h1h1h1h1h1h1h1h1h1h1h1h1h1h1h1h1h1h2h1h1h1h1h1h1h1h1h1h2h1h1h1h1h1h1h2h1h1h1h1h1h2h1h1h1h1h2h1h1h1h2h1h1h1h1h2h1h1h2h1h1h1h2h1h1h2h1h1h2h1h1h2h1h1h2h1h1h2h1h1h2h1h1h2h1h2h1h1h2h1h2h1h1h2 h1h2h1h2h1h1h2h1h2h1h2h1h2h1h2h1h2h1h2h1h2h1h2h1h2h1h2h1h2h1h2h2h1h2h1h2h1h2h1h2h2h1h2h1h2h2h1h2h1h2h2h1h2h2h1h2h1h2h2h1h2h2h1h2h2h1h2h2h1h2h2h1h2h2h2h1h2h2h1h2h2h2h1h2h2h2h1h2h2h2h1h2h2h2h1h2h2h2h2h1h2h2h2h2h1h2h2h2h2h2h1h2h2h2h2h2h1h2h2h2h2h2h2h2h2h1h2 h2h2h2h10l4 -8q4 -9 11 -28.5t13.5 -44.5t11.5 -64.5t5 -81.5q0 -51 -21.5 -117.5t-51.5 -125t-61 -109.5t-52.5 -81t-22.5 -30z" />
<glyph unicode="&#x2022;" horiz-adv-x="874" d="M51 575q0 159 113.5 272.5t273.5 113.5q159 0 272 -113.5t113 -272.5q0 -161 -112.5 -273t-272.5 -112t-273.5 112t-113.5 273z" />
<glyph unicode="&#x2026;" horiz-adv-x="1873" d="M51 223q0 107 76.5 183.5t185.5 76.5q107 0 183.5 -76.5t76.5 -183.5q0 -108 -76 -184t-184 -76q-109 0 -185.5 75.5t-76.5 184.5zM676 223q0 107 76.5 183.5t185.5 76.5q107 0 183.5 -76.5t76.5 -183.5q0 -108 -76 -184t-184 -76q-109 0 -185.5 75.5t-76.5 184.5z M1300 223q0 107 77 183.5t186 76.5q107 0 183.5 -76.5t76.5 -183.5q0 -108 -76 -184t-184 -76q-109 0 -186 76t-77 184z" />
<glyph unicode="&#x202f;" horiz-adv-x="397" />
<glyph unicode="&#x2039;" horiz-adv-x="696" d="M51 555l240 469l354 -61l-201 -408l201 -405l-354 -62z" />
<glyph unicode="&#x203a;" horiz-adv-x="696" d="M51 150l201 405l-201 408l355 61l239 -469l-239 -467z" />
<glyph unicode="&#x205f;" horiz-adv-x="497" />
<glyph unicode="&#x20ac;" d="M27 461v196h129q-2 18 -2 56q0 31 2 45h-129v196h155q62 247 247 377.5t448 130.5q95 0 197.5 -24.5t157.5 -49.5l56 -24l-108 -348q-7 4 -19 11.5t-49 25.5t-73 32t-84 25.5t-89 11.5q-161 0 -215 -168h518l-61 -196h-485v-33q0 -11 1 -34t1 -34h462l-61 -196h-367 q58 -156 220 -156q72 0 152.5 26.5t125.5 52.5l45 26l101 -318q-6 -5 -17.5 -14t-52 -31t-86 -39t-119 -31t-151.5 -14q-270 0 -451.5 126t-243.5 372h-155z" />
<glyph unicode="&#x2122;" horiz-adv-x="1392" d="M20 1257q13 96 15 168h522l-25 -168h-131q-6 -95 -6 -178q0 -42 2 -155.5t2 -180.5h-227q4 191 4 338q0 50 -4 176h-152zM582 1425h217q16 -24 77 -157t80 -166q88 193 156 323h199q-13 -237 -13 -346q0 -42 1 -155.5t1 -180.5h-227q0 -1 0.5 22t1.5 61t2 82.5t1.5 95.5 t0.5 90q-72 -131 -168 -283q-10 11 -38.5 62.5t-66.5 120t-63 108.5q0 -47 1 -167t1 -192h-159q4 191 4 338z" />
<glyph unicode="&#x25fc;" horiz-adv-x="1167" d="M0 0v1167h1167v-1167h-1167z" />
</font>
</defs>
</svg>
